<svg width="264" height="341" viewBox="0 0 264 341" fill="none" xmlns="http://www.w3.org/2000/svg">
<path d="M0.36796 331.412V327.732C0.809512 327.769 1.32466 327.769 1.76621 327.769C3.05407 327.769 4.08435 327.291 4.08435 325.304V305.655H8.13191V325.009C8.13191 330.161 5.37221 331.486 2.31815 331.486C1.58223 331.486 1.03029 331.486 0.36796 331.412ZM14.6028 311.579V325.488C14.6028 327.328 15.4123 328.027 16.7002 328.027C17.9881 328.027 18.7976 327.328 18.7976 325.488V311.579C18.7976 309.739 17.9881 309.04 16.7002 309.04C15.4123 309.04 14.6028 309.739 14.6028 311.579ZM10.5553 325.23V311.837C10.5553 307.715 12.7262 305.36 16.7002 305.36C20.6742 305.36 22.8451 307.715 22.8451 311.837V325.23C22.8451 329.351 20.6742 331.706 16.7002 331.706C12.7262 331.706 10.5553 329.351 10.5553 325.23ZM29.523 320.373V331.412H25.4755V305.655H29.523V316.694H34.1225V305.655H38.2437V331.412H34.1225V320.373H29.523ZM49.8255 331.412L44.858 312.756H44.7844V331.412H41.1416V305.655H46.2195L50.3038 321.072H50.3774V305.655H53.9834V331.412H49.8255ZM73.0449 331.412L71.6099 317.687H71.5363L70.1012 331.412H64.545L61.6749 305.655H65.6121L67.7463 325.966H67.8199L69.7333 305.655H73.6336L75.6206 326.113H75.6942L77.7548 305.655H81.2872L78.4171 331.412H73.0449ZM87.3761 320.373V331.412H83.3285V305.655H87.3761V316.694H91.9756V305.655H96.0967V331.412H91.9756V320.373H87.3761ZM99.0315 331.412V305.655H103.079V331.412H99.0315ZM104.861 309.334V305.655H117.372V309.334H113.14V331.412H109.093V309.334H104.861ZM124.747 305.655L127.691 323.942H127.765L130.487 305.655H136.117V331.412H132.29V312.94H132.217L129.494 331.412H125.667L122.723 313.198H122.65V331.412H119.117V305.655H124.747ZM142.778 311.579V325.488C142.778 327.328 143.587 328.027 144.875 328.027C146.163 328.027 146.973 327.328 146.973 325.488V311.579C146.973 309.739 146.163 309.04 144.875 309.04C143.587 309.04 142.778 309.739 142.778 311.579ZM138.73 325.23V311.837C138.73 307.715 140.901 305.36 144.875 305.36C148.849 305.36 151.02 307.715 151.02 311.837V325.23C151.02 329.351 148.849 331.706 144.875 331.706C140.901 331.706 138.73 329.351 138.73 325.23ZM166.235 331.412H162.114C161.893 330.75 161.746 330.345 161.746 328.248V324.2C161.746 321.808 160.936 320.925 159.096 320.925H157.698V331.412H153.651V305.655H159.759C163.953 305.655 165.756 307.605 165.756 311.579V313.603C165.756 316.252 164.91 317.945 163.107 318.791V318.865C165.131 319.711 165.793 321.624 165.793 324.31V328.284C165.793 329.535 165.83 330.455 166.235 331.412ZM159.648 309.334H157.698V317.246H159.28C160.789 317.246 161.709 316.583 161.709 314.523V311.984C161.709 310.144 161.083 309.334 159.648 309.334ZM172.503 309.334V316.51H178.059V320.189H172.503V327.732H179.494V331.412H168.455V305.655H179.494V309.334H172.503Z" fill="#FFEACD"/>
<path d="M3.69305 13.3828L2.9152 2.70037H8.412L7.58229 13.3828H3.69305ZM10.9011 13.3828L10.1233 2.70037H15.6201L14.7903 13.3828H10.9011ZM30.9279 25.4654H36.3209V30.288C36.3209 36.096 33.417 39.4148 27.8165 39.4148C22.216 39.4148 19.312 36.096 19.312 30.288V11.4123C19.312 5.60433 22.216 2.28552 27.8165 2.28552C33.417 2.28552 36.3209 5.60433 36.3209 11.4123V14.9385H30.9279V11.0493C30.9279 8.45644 29.787 7.47117 27.972 7.47117C26.1571 7.47117 25.0162 8.45644 25.0162 11.0493V30.651C25.0162 33.2439 26.1571 34.1773 27.972 34.1773C29.787 34.1773 30.9279 33.2439 30.9279 30.651V25.4654ZM45.0195 11.0493V30.651C45.0195 33.2439 46.1603 34.2291 47.9753 34.2291C49.7903 34.2291 50.9311 33.2439 50.9311 30.651V11.0493C50.9311 8.45644 49.7903 7.47117 47.9753 7.47117C46.1603 7.47117 45.0195 8.45644 45.0195 11.0493ZM39.3152 30.288V11.4123C39.3152 5.60433 42.3748 2.28552 47.9753 2.28552C53.5758 2.28552 56.6353 5.60433 56.6353 11.4123V30.288C56.6353 36.096 53.5758 39.4148 47.9753 39.4148C42.3748 39.4148 39.3152 36.096 39.3152 30.288ZM72.9446 2.70037L78.7525 38.9999H72.9965L72.0112 32.4142H65.0106L64.0253 38.9999H58.7878L64.5957 2.70037H72.9446ZM68.4849 9.13058L65.7366 27.4878H71.2333L68.4849 9.13058ZM92.5075 25.4654H97.9006V30.288C97.9006 36.096 94.9966 39.4148 89.3961 39.4148C83.7956 39.4148 80.8916 36.096 80.8916 30.288V11.4123C80.8916 5.60433 83.7956 2.28552 89.3961 2.28552C94.9966 2.28552 97.9006 5.60433 97.9006 11.4123V14.9385H92.5075V11.0493C92.5075 8.45644 91.3666 7.47117 89.5517 7.47117C87.7367 7.47117 86.5958 8.45644 86.5958 11.0493V30.651C86.5958 33.2439 87.7367 34.1773 89.5517 34.1773C91.3666 34.1773 92.5075 33.2439 92.5075 30.651V25.4654ZM107.066 23.443V38.9999H101.362V2.70037H107.066V18.2573H113.548V2.70037H119.356V38.9999H113.548V23.443H107.066ZM123.492 38.9999V2.70037H129.196V38.9999H123.492ZM145.553 38.9999L138.449 12.7087V38.9999H133.315V2.70037H140.471L146.331 24.4283V2.70037H151.413V38.9999H145.553ZM164.053 23.9615V18.7759H172.039V30.288C172.039 36.096 169.135 39.4148 163.535 39.4148C157.934 39.4148 155.03 36.096 155.03 30.288V11.4123C155.03 5.60433 157.934 2.28552 163.535 2.28552C169.135 2.28552 172.039 5.60433 172.039 11.4123V14.9385H166.646V11.0493C166.646 8.45644 165.505 7.47117 163.69 7.47117C161.875 7.47117 160.734 8.45644 160.734 11.0493V30.651C160.734 33.2439 161.875 34.1773 163.69 34.1773C165.505 34.1773 166.646 33.2439 166.646 30.651V23.9615H164.053ZM183.755 38.9999V2.70037H189.459V38.9999H183.755ZM192.904 11.4123C192.904 5.60433 195.756 2.28552 201.304 2.28552C206.853 2.28552 209.705 5.60433 209.705 11.4123V12.5531H204.312V11.0493C204.312 8.45644 203.275 7.47117 201.46 7.47117C199.645 7.47117 198.608 8.45644 198.608 11.0493C198.608 18.5166 209.757 19.9167 209.757 30.288C209.757 36.096 206.853 39.4148 201.253 39.4148C195.652 39.4148 192.748 36.096 192.748 30.288V28.0582H198.141V30.651C198.141 33.2439 199.282 34.1773 201.097 34.1773C202.912 34.1773 204.053 33.2439 204.053 30.651C204.053 23.1837 192.904 21.7836 192.904 11.4123Z" fill="#FFFFF5"/>
<path d="M2.91889 45.2993H8.77703V74.0574C8.77703 76.7202 9.94865 77.6788 11.8126 77.6788C13.6766 77.6788 14.8482 76.7202 14.8482 74.0574V45.2993H20.3868V73.6846C20.3868 79.6493 17.4045 83.0577 11.6528 83.0577C5.90121 83.0577 2.91889 79.6493 2.91889 73.6846V45.2993ZM36.9194 82.5784L29.6233 55.5777V82.5784H24.351V45.2993H31.7003L37.7182 67.6135V45.2993H42.9373V82.5784H36.9194ZM47.1316 82.5784V45.2993H52.9898V77.2528H62.6291V82.5784H47.1316ZM70.5571 53.8735V74.0042C70.5571 76.667 71.7287 77.6788 73.5927 77.6788C75.4566 77.6788 76.6283 76.667 76.6283 74.0042V53.8735C76.6283 51.2107 75.4566 50.1988 73.5927 50.1988C71.7287 50.1988 70.5571 51.2107 70.5571 53.8735ZM64.699 73.6314V54.2463C64.699 48.2816 67.8411 44.8733 73.5927 44.8733C79.3443 44.8733 82.4864 48.2816 82.4864 54.2463V73.6314C82.4864 79.596 79.3443 83.0044 73.5927 83.0044C67.8411 83.0044 64.699 79.596 64.699 73.6314ZM97.7434 68.6786H103.282V73.6314C103.282 79.596 100.3 83.0044 94.548 83.0044C88.7964 83.0044 85.8141 79.596 85.8141 73.6314V54.2463C85.8141 48.2816 88.7964 44.8733 94.548 44.8733C100.3 44.8733 103.282 48.2816 103.282 54.2463V57.8677H97.7434V53.8735C97.7434 51.2107 96.5717 50.1988 94.7078 50.1988C92.8438 50.1988 91.6722 51.2107 91.6722 53.8735V74.0042C91.6722 76.667 92.8438 77.6256 94.7078 77.6256C96.5717 77.6256 97.7434 76.667 97.7434 74.0042V68.6786ZM120.204 82.5784L114.505 67.72L112.695 71.1284V82.5784H106.836V45.2993H112.695V61.5423L120.363 45.2993H126.221L118.073 61.9151L126.221 82.5784H120.204ZM128.888 82.5784V45.2993H134.746V82.5784H128.888ZM151.544 82.5784L144.248 55.5777V82.5784H138.976V45.2993H146.325L152.343 67.6135V45.2993H157.562V82.5784H151.544ZM170.544 67.1342V61.8086H178.745V73.6314C178.745 79.596 175.763 83.0044 170.011 83.0044C164.259 83.0044 161.277 79.596 161.277 73.6314V54.2463C161.277 48.2816 164.259 44.8733 170.011 44.8733C175.763 44.8733 178.745 48.2816 178.745 54.2463V57.8677H173.206V53.8735C173.206 51.2107 172.035 50.1988 170.171 50.1988C168.307 50.1988 167.135 51.2107 167.135 53.8735V74.0042C167.135 76.667 168.307 77.6256 170.171 77.6256C172.035 77.6256 173.206 76.667 173.206 74.0042V67.1342H170.544ZM203.771 45.2993L209.736 82.5784H203.824L202.813 75.8149H195.623L194.611 82.5784H189.232L195.197 45.2993H203.771ZM199.191 51.903L196.369 70.7556H202.014L199.191 51.903Z" fill="#FFFFF5"/>
<path d="M14.7344 90.3035C22.758 90.3035 26.6969 94.753 26.6969 102.923V109.56C26.6969 117.73 22.758 122.179 14.7344 122.179H10.9414V141.363H2.9177V90.3035H14.7344ZM14.7344 97.5978H10.9414V114.885H14.7344C17.2874 114.885 18.6733 113.718 18.6733 110.071V102.412C18.6733 98.7649 17.2874 97.5978 14.7344 97.5978ZM38.4372 97.5978V111.822H49.4515V119.116H38.4372V134.069H52.2963V141.363H30.4136V90.3035H52.2963V97.5978H38.4372ZM82.2146 141.363H74.0451C73.6074 140.05 73.3157 139.248 73.3157 135.09V127.067C73.3157 122.325 71.7109 120.575 68.0638 120.575H65.292V141.363H57.2683V90.3035H69.3768C77.6922 90.3035 81.2664 94.1695 81.2664 102.047V106.059C81.2664 111.311 79.5887 114.739 76.0145 116.417C80.0264 118.095 81.3393 121.961 81.3393 127.285V135.163C81.3393 137.643 81.4123 139.467 82.2146 141.363ZM69.1579 97.5978H65.292V113.28H68.4285C71.4192 113.28 73.2427 111.967 73.2427 107.883V102.85C73.2427 99.2025 72.0027 97.5978 69.1579 97.5978ZM85.5951 102.558C85.5951 94.3883 89.6069 89.72 97.4117 89.72C105.217 89.72 109.228 94.3883 109.228 102.558V104.163H101.642V102.047C101.642 98.4001 100.184 97.0142 97.6306 97.0142C95.0776 97.0142 93.6187 98.4001 93.6187 102.047C93.6187 112.551 109.301 114.52 109.301 129.109C109.301 137.278 105.217 141.947 97.3388 141.947C89.461 141.947 85.3762 137.278 85.3762 129.109V125.972H92.9622V129.619C92.9622 133.267 94.567 134.58 97.12 134.58C99.673 134.58 101.278 133.267 101.278 129.619C101.278 119.116 85.5951 117.146 85.5951 102.558ZM121.266 102.047V129.619C121.266 133.267 122.87 134.653 125.423 134.653C127.976 134.653 129.581 133.267 129.581 129.619V102.047C129.581 98.4001 127.976 97.0142 125.423 97.0142C122.87 97.0142 121.266 98.4001 121.266 102.047ZM113.242 129.109V102.558C113.242 94.3883 117.546 89.72 125.423 89.72C133.301 89.72 137.605 94.3883 137.605 102.558V129.109C137.605 137.278 133.301 141.947 125.423 141.947C117.546 141.947 113.242 137.278 113.242 129.109ZM159.96 141.363L149.967 104.381V141.363H142.746V90.3035H152.812L161.055 120.866V90.3035H168.203V141.363H159.96ZM174.823 105.33L173.729 90.3035H181.461L180.294 105.33H174.823ZM186.033 102.558C186.033 94.3883 190.045 89.72 197.85 89.72C205.655 89.72 209.667 94.3883 209.667 102.558V104.163H202.081V102.047C202.081 98.4001 200.622 97.0142 198.069 97.0142C195.516 97.0142 194.057 98.4001 194.057 102.047C194.057 112.551 209.74 114.52 209.74 129.109C209.74 137.278 205.655 141.947 197.777 141.947C189.899 141.947 185.815 137.278 185.815 129.109V125.972H193.401V129.619C193.401 133.267 195.005 134.58 197.558 134.58C200.111 134.58 201.716 133.267 201.716 129.619C201.716 119.116 186.033 117.146 186.033 102.558Z" fill="#FFFFF5"/>
<path d="M11.1848 148.58C16.7988 148.58 19.5548 151.693 19.5548 157.409V162.053C19.5548 167.769 16.7988 170.883 11.1848 170.883H8.53093V184.305H2.91694V148.58H11.1848ZM11.1848 153.683H8.53093V165.779H11.1848C12.9711 165.779 13.9408 164.962 13.9408 162.411V157.052C13.9408 154.5 12.9711 153.683 11.1848 153.683ZM27.3099 156.797V176.088C27.3099 178.64 28.4327 179.61 30.2189 179.61C32.0052 179.61 33.128 178.64 33.128 176.088V156.797C33.128 154.245 32.0052 153.275 30.2189 153.275C28.4327 153.275 27.3099 154.245 27.3099 156.797ZM21.6959 175.731V157.154C21.6959 151.438 24.707 148.172 30.2189 148.172C35.7309 148.172 38.742 151.438 38.742 157.154V175.731C38.742 181.447 35.7309 184.713 30.2189 184.713C24.707 184.713 21.6959 181.447 21.6959 175.731ZM40.7571 153.683V148.58H58.1095V153.683H52.2403V184.305H46.6263V153.683H40.7571ZM66.1959 153.683V163.635H73.9024V168.739H66.1959V179.202H75.8928V184.305H60.5819V148.58H75.8928V153.683H66.1959ZM91.3652 184.305L84.3732 158.43V184.305H79.3206V148.58H86.3636L92.1307 169.964V148.58H97.1322V184.305H91.3652ZM99.5186 153.683V148.58H116.871V153.683H111.002V184.305H105.388V153.683H99.5186ZM119.343 184.305V148.58H124.957V184.305H119.343ZM141.515 148.58L147.231 184.305H141.566L140.596 177.824H133.706L132.737 184.305H127.582L133.298 148.58H141.515ZM137.126 154.908L134.421 172.975H139.831L137.126 154.908ZM149.846 184.305V148.58H155.459V179.202H164.697V184.305H149.846ZM173.431 153.683V148.58H190.784V153.683H184.915V184.305H179.301V153.683H173.431ZM198.411 156.797V176.088C198.411 178.64 199.534 179.61 201.32 179.61C203.106 179.61 204.229 178.64 204.229 176.088V156.797C204.229 154.245 203.106 153.275 201.32 153.275C199.534 153.275 198.411 154.245 198.411 156.797ZM192.797 175.731V157.154C192.797 151.438 195.808 148.172 201.32 148.172C206.832 148.172 209.843 151.438 209.843 157.154V175.731C209.843 181.447 206.832 184.713 201.32 184.713C195.808 184.713 192.797 181.447 192.797 175.731Z" fill="#FFFFF5"/>
<path d="M9.39816 192.349L12.8308 213.411L16.0092 192.349H22.4931V222.014H18.0858V200.74L14.865 222.014H10.4576L6.98258 201.037V222.014H2.91424V192.349H9.39816ZM36.2244 192.349L40.9708 222.014H36.2668L35.4616 216.632H29.7405L28.9353 222.014H24.6551L29.4015 192.349H36.2244ZM32.5799 197.604L30.3338 212.606H34.826L32.5799 197.604ZM54.3721 192.349H58.6947L53.8211 206.758L59.0337 222.014H54.1178L50.3037 210.275L46.4473 222.014H42.0823L47.2949 206.758L42.4213 192.349H47.2525L50.7699 203.283L54.3721 192.349ZM61.3513 222.014V192.349H66.0129V222.014H61.3513ZM75.863 192.349L79.2956 213.411L82.474 192.349H88.9579V222.014H84.5506V200.74L81.3298 222.014H76.9224L73.4474 201.037V222.014H69.379V192.349H75.863ZM92.3489 222.014V192.349H97.0105V222.014H92.3489ZM99.8257 199.469C99.8257 194.722 102.157 192.01 106.691 192.01C111.226 192.01 113.556 194.722 113.556 199.469V200.401H109.149V199.172C109.149 197.053 108.301 196.248 106.818 196.248C105.335 196.248 104.487 197.053 104.487 199.172C104.487 205.275 113.599 206.419 113.599 214.894C113.599 219.641 111.226 222.353 106.649 222.353C102.072 222.353 99.6986 219.641 99.6986 214.894V213.072H104.106V215.191C104.106 217.31 105.038 218.073 106.522 218.073C108.005 218.073 108.937 217.31 108.937 215.191C108.937 209.089 99.8257 207.944 99.8257 199.469ZM120.931 196.587V204.851H127.33V209.089H120.931V217.776H128.983V222.014H116.27V192.349H128.983V196.587H120.931ZM137.096 196.587V192.349H151.505V196.587H146.631V222.014H141.97V196.587H137.096ZM158.219 209.3V222.014H153.558V192.349H158.219V205.063H163.517V192.349H168.263V222.014H163.517V209.3H158.219ZM176.305 196.587V204.851H182.704V209.089H176.305V217.776H184.357V222.014H171.643V192.349H184.357V196.587H176.305ZM187.245 222.014V192.349H191.907V222.014H187.245ZM209.809 222.014H205.063C204.808 221.251 204.639 220.785 204.639 218.369V213.708C204.639 210.953 203.706 209.936 201.588 209.936H199.977V222.014H195.316V192.349H202.35C207.182 192.349 209.258 194.595 209.258 199.172V201.503C209.258 204.554 208.283 206.546 206.207 207.521C208.538 208.495 209.3 210.741 209.3 213.835V218.412C209.3 219.853 209.343 220.912 209.809 222.014ZM202.223 196.587H199.977V205.698H201.799C203.537 205.698 204.596 204.935 204.596 202.562V199.638C204.596 197.519 203.876 196.587 202.223 196.587Z" fill="#FFFFF5"/>
<path d="M14.9445 257.437V250.484H25.6532V265.921C25.6532 273.709 21.7591 278.159 14.2491 278.159C6.73907 278.159 2.84499 273.709 2.84499 265.921V240.609C2.84499 232.821 6.73907 228.371 14.2491 228.371C21.7591 228.371 25.6532 232.821 25.6532 240.609V245.338H18.4213V240.122C18.4213 236.646 16.8915 235.324 14.4577 235.324C12.0239 235.324 10.4941 236.646 10.4941 240.122V266.408C10.4941 269.884 12.0239 271.136 14.4577 271.136C16.8915 271.136 18.4213 269.884 18.4213 266.408V257.437H14.9445ZM54.3476 277.603H46.5595C46.1422 276.351 45.8641 275.586 45.8641 271.623V263.974C45.8641 259.454 44.3343 257.785 40.8574 257.785H38.215V277.603H30.5659V228.927H42.1091C50.0363 228.927 53.4436 232.612 53.4436 240.122V243.947C53.4436 248.954 51.8443 252.222 48.437 253.821C52.2615 255.421 53.5132 259.106 53.5132 264.182V271.692C53.5132 274.057 53.5827 275.795 54.3476 277.603ZM41.9005 235.881H38.215V250.831H41.2051C44.0561 250.831 45.7945 249.58 45.7945 245.685V240.887C45.7945 237.411 44.6124 235.881 41.9005 235.881ZM65.567 240.122V266.408C65.567 269.884 67.0968 271.206 69.5306 271.206C71.9645 271.206 73.4943 269.884 73.4943 266.408V240.122C73.4943 236.646 71.9645 235.324 69.5306 235.324C67.0968 235.324 65.567 236.646 65.567 240.122ZM57.9179 265.921V240.609C57.9179 232.821 62.0206 228.371 69.5306 228.371C77.0407 228.371 81.1434 232.821 81.1434 240.609V265.921C81.1434 273.709 77.0407 278.159 69.5306 278.159C62.0206 278.159 57.9179 273.709 57.9179 265.921ZM105.863 277.603L103.081 251.666L100.3 277.603H89.7997L84.3758 228.927H91.8162L95.9189 267.312L99.6044 228.927H106.975L110.8 267.59L114.764 228.927H121.439L116.015 277.603H105.863ZM123.072 235.881V228.927H146.714V235.881H138.717V277.603H131.068V235.881H123.072ZM157.732 256.742V277.603H150.083V228.927H157.732V249.788H166.424V228.927H174.212V277.603H166.424V256.742H157.732ZM179.759 270.232H187.13V277.603H179.759V270.232ZM193.704 243.252L192.661 228.927H200.032L198.919 243.252H193.704ZM203.37 243.252L202.327 228.927H209.698L208.585 243.252H203.37Z" fill="#FFFFF5"/>
</svg>
