<?xml version="1.0" encoding="utf-8"?>
<!-- Generator: Adobe Illustrator 28.1.0, SVG Export Plug-In . SVG Version: 6.00 Build 0)  -->
<svg version="1.1" id="Layer_1" xmlns="http://www.w3.org/2000/svg" xmlns:xlink="http://www.w3.org/1999/xlink" x="0px" y="0px"
	 viewBox="0 0 1320 524" style="enable-background:new 0 0 1320 524;" xml:space="preserve">
<style type="text/css">
	.st0{fill:#0A0A0A;}
	.st1{fill:#FF4C1F;}
</style>
<path class="st0" d="M133.9,19.9c8.3,0,15.5,1.6,21.6,4.9s10.9,8,14.3,14.3c3.4,6.3,5.1,14,5.1,22.9v49h-20.7V89.5h-41V111H92.9V62
	c0-9,1.7-16.6,5.1-22.9c3.4-6.3,8.2-11.1,14.3-14.3C118.5,21.5,125.7,19.9,133.9,19.9z M154.3,72.9V60.1c0-7.4-1.8-13-5.5-16.8
	c-3.7-3.8-8.7-5.8-15-5.8c-6.4,0-11.4,1.9-15.1,5.8c-3.6,3.8-5.4,9.3-5.4,16.8v12.8H154.3z M253.4,112c-7.3,0-14-1.5-19.8-4.5
	c-5.8-3.1-10.4-7.3-13.7-12.7c-3.2-5.4-4.9-11.5-4.9-18.3s1.6-12.9,4.9-18.3c3.3-5.4,7.9-9.6,13.7-12.5c5.9-3.1,12.5-4.6,19.8-4.6
	c7.3,0,13.6,1.5,18.9,4.6c5.5,3,9.4,7.3,11.9,12.9L268.7,67c-3.6-6.3-8.7-9.5-15.5-9.5c-5.2,0-9.5,1.7-12.9,5.1
	c-3.4,3.4-5.1,8.1-5.1,14s1.7,10.5,5.1,14c3.4,3.4,7.7,5.1,12.9,5.1c6.8,0,12-3.2,15.5-9.5l15.5,8.4c-2.5,5.5-6.4,9.7-11.9,12.8
	C266.9,110.5,260.6,112,253.4,112z M309.7,51.2c2.4-3.3,5.6-5.8,9.6-7.6c4.1-1.7,8.8-2.6,14.1-2.6v18.4c-2.2-0.2-3.7-0.3-4.5-0.3
	c-5.7,0-10.2,1.6-13.4,4.9c-3.2,3.2-4.9,7.9-4.9,14.3V111h-20V42.1h19.1V51.2z M374.2,96c3.6,0,6.7-0.5,9.5-1.5
	c2.8-1.1,5.4-2.8,7.8-5.1l10.6,11.5c-6.5,7.4-16,11.1-28.4,11.1c-7.8,0-14.6-1.5-20.6-4.5c-6-3.1-10.6-7.3-13.8-12.7
	c-3.2-5.4-4.9-11.5-4.9-18.3c0-6.7,1.6-12.8,4.7-18.2c3.2-5.5,7.6-9.7,13.2-12.7c5.6-3.1,11.9-4.6,18.9-4.6c6.6,0,12.5,1.4,17.9,4.2
	c5.4,2.7,9.6,6.7,12.8,12c3.2,5.2,4.9,11.4,4.9,18.6l-50.9,9.9c1.5,3.4,3.7,6,6.8,7.7C365.8,95.2,369.7,96,374.2,96z M371.2,56.2
	c-5,0-9.1,1.6-12.3,4.9c-3.2,3.2-4.8,7.7-5,13.4l33.5-6.5c-0.9-3.6-2.9-6.4-5.8-8.6S375.3,56.2,371.2,56.2z M485,42.1V111h-19.1
	v-7.9c-4.9,6-12.1,9-21.5,9c-6.5,0-12.4-1.5-17.7-4.4c-5.2-2.9-9.3-7-12.3-12.4c-3-5.4-4.5-11.6-4.5-18.7s1.5-13.3,4.5-18.7
	s7.1-9.5,12.3-12.4c5.3-2.9,11.2-4.4,17.7-4.4c8.8,0,15.7,2.8,20.6,8.3v-7.3H485z M447.9,95.6c5,0,9.2-1.7,12.5-5.1
	c3.3-3.5,5-8.1,5-14c0-5.8-1.7-10.4-5-13.8c-3.3-3.5-7.5-5.2-12.5-5.2c-5.1,0-9.3,1.7-12.7,5.2c-3.3,3.4-5,8-5,13.8
	c0,5.8,1.7,10.5,5,14C438.5,93.9,442.8,95.6,447.9,95.6z M539.8,107.7c-2,1.5-4.4,2.6-7.3,3.3c-2.8,0.7-5.8,1-8.8,1
	c-8.3,0-14.6-2.1-19.1-6.3c-4.4-4.2-6.7-10.3-6.7-18.4V26.9h20v16.8h17V59h-17v28c0,2.9,0.7,5.2,2.2,6.8c1.5,1.5,3.5,2.3,6.3,2.3
	c3.1,0,5.8-0.9,8.2-2.6L539.8,107.7z M546,42.1h20V111h-20V42.1z M556,32.5c-3.7,0-6.7-1.1-9-3.2c-2.3-2.1-3.5-4.8-3.5-7.9
	s1.2-5.8,3.5-7.9c2.3-2.1,5.3-3.2,9-3.2s6.7,1,9,3.1s3.5,4.6,3.5,7.7c0,3.3-1.2,6.1-3.5,8.3C562.6,31.5,559.7,32.5,556,32.5z
	 M647.7,42.1L618.7,111h-20.6l-28.9-68.9h20.6L608.8,89l19.7-46.8H647.7z M683.6,96c3.6,0,6.7-0.5,9.5-1.5c2.8-1.1,5.4-2.8,7.8-5.1
	l10.6,11.5c-6.5,7.4-16,11.1-28.4,11.1c-7.8,0-14.6-1.5-20.6-4.5c-6-3.1-10.6-7.3-13.8-12.7s-4.9-11.5-4.9-18.3
	c0-6.7,1.6-12.8,4.7-18.2c3.2-5.5,7.6-9.7,13.2-12.7c5.6-3.1,11.9-4.6,18.9-4.6c6.6,0,12.5,1.4,17.9,4.2c5.4,2.7,9.6,6.7,12.8,12
	c3.2,5.2,4.9,11.4,4.9,18.6l-50.9,9.9c1.5,3.4,3.7,6,6.8,7.7C675.2,95.2,679.1,96,683.6,96z M680.6,56.2c-5,0-9.1,1.6-12.3,4.9
	c-3.2,3.2-4.8,7.7-5,13.4l33.5-6.5c-0.9-3.6-2.9-6.4-5.8-8.6S684.7,56.2,680.6,56.2z M778.8,112c-5.7,0-11.3-0.7-16.8-2
	c-5.5-1.5-9.8-3.2-13.1-5.4l6.7-14.3c3.1,2,6.8,3.6,11.1,4.9c4.4,1.2,8.6,1.8,12.8,1.8c8.4,0,12.7-2.1,12.7-6.3c0-2-1.2-3.4-3.5-4.2
	c-2.3-0.9-5.8-1.6-10.6-2.2c-5.6-0.9-10.3-1.8-14-2.9s-6.9-3.1-9.6-5.9c-2.6-2.8-4-6.8-4-12c0-4.4,1.2-8.2,3.7-11.5
	c2.6-3.4,6.2-6.1,11-7.9c4.9-1.9,10.6-2.8,17.2-2.8c4.9,0,9.7,0.6,14.5,1.7c4.9,1,8.9,2.5,12,4.4l-6.7,14.2
	c-6.1-3.4-12.7-5.1-19.8-5.1c-4.3,0-7.5,0.6-9.6,1.8c-2.1,1.2-3.2,2.7-3.2,4.6c0,2.1,1.2,3.6,3.5,4.5s6,1.7,11,2.4
	c5.6,0.9,10.2,2,13.8,3.1c3.6,1,6.7,2.9,9.3,5.8c2.6,2.8,4,6.7,4,11.8c0,4.3-1.3,8.1-3.8,11.4s-6.3,5.9-11.3,7.8
	C791.4,111.1,785.6,112,778.8,112z M860,107.7c-2,1.5-4.4,2.6-7.3,3.3c-2.8,0.7-5.8,1-8.8,1c-8.3,0-14.6-2.1-19.1-6.3
	c-4.4-4.2-6.7-10.3-6.7-18.4V26.9h20v16.8h17V59h-17v28c0,2.9,0.7,5.2,2.2,6.8c1.5,1.5,3.5,2.3,6.3,2.3c3.1,0,5.8-0.9,8.2-2.6
	L860,107.7z M935.5,42.1V111h-18.9v-8.2c-2.6,3-5.8,5.3-9.5,6.9c-3.7,1.5-7.6,2.3-11.9,2.3c-9,0-16.2-2.6-21.5-7.8
	c-5.3-5.2-7.9-12.9-7.9-23.2V42.1h20v36c0,11.1,4.7,16.6,14,16.6c4.8,0,8.6-1.5,11.5-4.6c2.9-3.2,4.4-7.8,4.4-14v-34H935.5z
	 M1019.1,16v95H1000v-7.9c-4.9,6-12.1,9-21.5,9c-6.5,0-12.4-1.5-17.7-4.4c-5.2-2.9-9.3-7-12.3-12.4c-3-5.4-4.5-11.6-4.5-18.7
	s1.5-13.3,4.5-18.7s7.1-9.5,12.3-12.4c5.3-2.9,11.2-4.4,17.7-4.4c8.8,0,15.7,2.8,20.6,8.3V16H1019.1z M981.9,95.6
	c5,0,9.2-1.7,12.5-5.1c3.3-3.5,5-8.1,5-14c0-5.8-1.7-10.4-5-13.8c-3.3-3.5-7.5-5.2-12.5-5.2c-5.1,0-9.3,1.7-12.7,5.2
	c-3.3,3.4-5,8-5,13.8c0,5.8,1.7,10.5,5,14C972.6,93.9,976.8,95.6,981.9,95.6z M1032.4,42.1h20V111h-20V42.1z M1042.4,32.5
	c-3.7,0-6.7-1.1-9-3.2c-2.3-2.1-3.5-4.8-3.5-7.9s1.2-5.8,3.5-7.9c2.3-2.1,5.3-3.2,9-3.2c3.7,0,6.7,1,9,3.1c2.3,2,3.5,4.6,3.5,7.7
	c0,3.3-1.2,6.1-3.5,8.3C1049.1,31.5,1046.1,32.5,1042.4,32.5z M1098.6,112c-7.2,0-13.8-1.5-19.6-4.5c-5.7-3.1-10.2-7.3-13.4-12.7
	s-4.9-11.5-4.9-18.3s1.6-12.9,4.9-18.3s7.7-9.6,13.4-12.5c5.8-3.1,12.3-4.6,19.6-4.6c7.3,0,13.7,1.5,19.5,4.6
	c5.7,3,10.2,7.2,13.4,12.5s4.9,11.5,4.9,18.3s-1.6,12.9-4.9,18.3s-7.7,9.6-13.4,12.7C1112.3,110.5,1105.8,112,1098.6,112z
	 M1098.6,95.6c5.1,0,9.3-1.7,12.5-5.1c3.3-3.5,5-8.1,5-14c0-5.8-1.7-10.4-5-13.8c-3.2-3.5-7.4-5.2-12.5-5.2c-5.1,0-9.3,1.7-12.7,5.2
	c-3.3,3.4-5,8-5,13.8c0,5.8,1.7,10.5,5,14C1089.2,93.9,1093.4,95.6,1098.6,95.6z M201.1,173.1v38c0,10.2-2.8,18-8.3,23.6
	c-5.5,5.5-13.4,8.3-23.7,8.3c-4.9,0-9.3-0.8-13.2-2.3c-3.8-1.5-6.9-4-9.5-7.4c-2.6,3.4-5.7,5.9-9.5,7.4c-3.8,1.5-8.2,2.3-13.3,2.3
	c-10.3,0-18.2-2.8-23.7-8.3c-5.5-5.5-8.2-13.4-8.2-23.6v-38h20v36.5c0,5.7,1,9.9,2.9,12.7c2,2.6,5,4,9.2,4c4.3,0,7.4-1.4,9.5-4.1
	c2-2.7,3.1-6.9,3.1-12.5v-36.5h20v36.5c0,5.6,1,9.8,3.1,12.5c2,2.7,5.2,4.1,9.5,4.1c4.2,0,7.3-1.3,9.2-4c2-2.7,2.9-7,2.9-12.7v-36.5
	H201.1z M214,173.1h20V242h-20V173.1z M224,163.5c-3.7,0-6.7-1.1-9-3.2s-3.5-4.8-3.5-7.9c0-3.2,1.2-5.8,3.5-7.9
	c2.3-2.1,5.3-3.2,9-3.2c3.7,0,6.7,1,9,3.1s3.5,4.6,3.5,7.7c0,3.3-1.2,6.1-3.5,8.3C230.6,162.5,227.6,163.5,224,163.5z M288.8,238.7
	c-2,1.5-4.4,2.6-7.3,3.3c-2.8,0.7-5.8,1-8.8,1c-8.3,0-14.6-2.1-19.1-6.3s-6.7-10.3-6.7-18.4v-60.4h20v16.8h17V190h-17v28
	c0,2.9,0.7,5.2,2.2,6.8c1.5,1.5,3.5,2.3,6.3,2.3c3.1,0,5.8-0.9,8.2-2.6L288.8,238.7z M336.8,172.1c8.5,0,15.4,2.6,20.6,7.7
	c5.3,5.1,7.9,12.7,7.9,22.8V242h-20v-36.4c0-5.5-1.2-9.5-3.6-12.2c-2.4-2.7-5.8-4.1-10.4-4.1c-5,0-9,1.6-12,4.7
	c-3,3.1-4.5,7.7-4.5,13.8v34h-20v-95h20v33.3c2.6-2.6,5.8-4.7,9.6-6C328.3,172.8,332.4,172.1,336.8,172.1z M409.5,173.1h20V242h-20
	V173.1z M419.5,163.5c-3.7,0-6.7-1.1-9-3.2c-2.3-2.1-3.5-4.8-3.5-7.9c0-3.2,1.2-5.8,3.5-7.9c2.3-2.1,5.3-3.2,9-3.2s6.7,1,9,3.1
	c2.3,2,3.5,4.6,3.5,7.7c0,3.3-1.2,6.1-3.5,8.3C426.1,162.5,423.1,163.5,419.5,163.5z M484.7,172.1c8.5,0,15.4,2.6,20.6,7.7
	c5.3,5.1,7.9,12.7,7.9,22.8V242h-20v-36.4c0-5.5-1.2-9.5-3.6-12.2c-2.4-2.7-5.8-4.1-10.4-4.1c-5,0-9,1.6-12,4.7
	c-3,3.1-4.5,7.7-4.5,13.8v34h-20v-68.9h19.1v8.1c2.6-2.9,5.9-5.1,9.9-6.7C475.7,172.9,480,172.1,484.7,172.1z M568.1,172.1
	c8.5,0,15.4,2.6,20.6,7.7c5.3,5.1,7.9,12.7,7.9,22.8V242h-20v-36.4c0-5.5-1.2-9.5-3.6-12.2c-2.4-2.7-5.8-4.1-10.4-4.1
	c-5,0-9,1.6-12,4.7c-3,3.1-4.5,7.7-4.5,13.8v34h-20v-68.9h19.1v8.1c2.6-2.9,5.9-5.1,9.9-6.7C559.1,172.9,563.4,172.1,568.1,172.1z
	 M643.1,243c-7.3,0-13.8-1.5-19.6-4.5c-5.7-3.1-10.2-7.3-13.4-12.7c-3.2-5.4-4.9-11.5-4.9-18.3c0-6.8,1.6-12.9,4.9-18.3
	c3.2-5.4,7.7-9.6,13.4-12.5c5.8-3.1,12.3-4.6,19.6-4.6s13.7,1.5,19.5,4.6c5.7,3,10.2,7.2,13.4,12.5c3.2,5.4,4.9,11.5,4.9,18.3
	c0,6.8-1.6,12.9-4.9,18.3c-3.2,5.4-7.7,9.6-13.4,12.7C656.9,241.5,650.4,243,643.1,243z M643.1,226.6c5.1,0,9.3-1.7,12.5-5.1
	c3.3-3.5,5-8.1,5-14c0-5.8-1.7-10.4-5-13.8c-3.2-3.5-7.4-5.2-12.5-5.2s-9.3,1.7-12.7,5.2c-3.3,3.4-5,8-5,13.8c0,5.8,1.7,10.5,5,14
	C633.8,224.9,638,226.6,643.1,226.6z M755.6,173.1L726.6,242h-20.6L677,173.1h20.6l19.1,46.8l19.7-46.8H755.6z M826.7,173.1V242
	h-19.1v-7.9c-4.9,6-12.1,9-21.5,9c-6.5,0-12.4-1.5-17.7-4.4c-5.2-2.9-9.3-7-12.3-12.4c-3-5.4-4.5-11.6-4.5-18.7
	c0-7.1,1.5-13.3,4.5-18.7c3-5.4,7.1-9.5,12.3-12.4c5.3-2.9,11.2-4.4,17.7-4.4c8.8,0,15.7,2.8,20.6,8.3v-7.3H826.7z M789.5,226.6
	c5,0,9.2-1.7,12.5-5.1c3.3-3.5,5-8.1,5-14c0-5.8-1.7-10.4-5-13.8c-3.3-3.5-7.5-5.2-12.5-5.2c-5.1,0-9.3,1.7-12.7,5.2
	c-3.3,3.4-5,8-5,13.8c0,5.8,1.7,10.5,5,14C780.2,224.9,784.4,226.6,789.5,226.6z M881.5,238.7c-2,1.5-4.4,2.6-7.3,3.3
	c-2.8,0.7-5.8,1-8.8,1c-8.3,0-14.6-2.1-19.1-6.3c-4.4-4.2-6.7-10.3-6.7-18.4v-60.4h20v16.8h17V190h-17v28c0,2.9,0.7,5.2,2.2,6.8
	c1.5,1.5,3.5,2.3,6.3,2.3c3.1,0,5.8-0.9,8.2-2.6L881.5,238.7z M887.7,173.1h20V242h-20V173.1z M897.6,163.5c-3.7,0-6.7-1.1-9-3.2
	s-3.5-4.8-3.5-7.9c0-3.2,1.2-5.8,3.5-7.9c2.3-2.1,5.3-3.2,9-3.2s6.7,1,9,3.1c2.3,2,3.5,4.6,3.5,7.7c0,3.3-1.2,6.1-3.5,8.3
	C904.3,162.5,901.3,163.5,897.6,163.5z M989.4,173.1L960.3,242h-20.6l-28.9-68.9h20.6l19.1,46.8l19.7-46.8H989.4z M1025.2,227
	c3.6,0,6.8-0.5,9.5-1.5c2.8-1.1,5.4-2.8,7.8-5.1l10.6,11.5c-6.5,7.4-16,11.1-28.4,11.1c-7.8,0-14.6-1.5-20.6-4.5
	c-6-3.1-10.6-7.3-13.8-12.7c-3.2-5.4-4.9-11.5-4.9-18.3c0-6.7,1.6-12.8,4.7-18.2c3.2-5.5,7.6-9.7,13.2-12.7
	c5.6-3.1,11.9-4.6,18.9-4.6c6.6,0,12.5,1.4,17.9,4.2c5.4,2.7,9.6,6.7,12.8,12c3.2,5.2,4.9,11.4,4.9,18.6l-50.9,9.9
	c1.5,3.4,3.7,6,6.8,7.7C1016.9,226.2,1020.7,227,1025.2,227z M1022.3,187.2c-5,0-9.1,1.6-12.3,4.9c-3.2,3.2-4.8,7.7-5,13.4l33.5-6.5
	c-0.9-3.6-2.9-6.4-5.8-8.6C1029.9,188.3,1026.4,187.2,1022.3,187.2z M115.4,374c-5.7,0-11.3-0.7-16.8-2c-5.5-1.5-9.8-3.2-13.1-5.4
	l6.7-14.3c3.1,2,6.8,3.6,11.1,4.9c4.4,1.2,8.6,1.8,12.8,1.8c8.4,0,12.7-2.1,12.7-6.3c0-2-1.2-3.4-3.5-4.2c-2.3-0.9-5.8-1.6-10.6-2.2
	c-5.6-0.9-10.3-1.8-14-2.9c-3.7-1.1-6.9-3.1-9.6-5.9c-2.6-2.8-4-6.8-4-12c0-4.4,1.2-8.2,3.7-11.5c2.6-3.4,6.2-6.1,11-7.9
	c4.9-1.9,10.6-2.8,17.2-2.8c4.9,0,9.7,0.6,14.5,1.7c4.9,1,8.9,2.5,12,4.4l-6.7,14.2c-6.1-3.4-12.7-5.1-19.8-5.1
	c-4.3,0-7.5,0.6-9.6,1.8c-2.1,1.2-3.2,2.7-3.2,4.6c0,2.1,1.2,3.6,3.5,4.5s6,1.7,11,2.4c5.6,0.9,10.2,2,13.8,3.1
	c3.6,1,6.7,2.9,9.3,5.8c2.6,2.8,4,6.7,4,11.8c0,4.3-1.3,8.1-3.8,11.4c-2.6,3.3-6.3,5.9-11.3,7.8C127.9,373.1,122.1,374,115.4,374z
	 M187.9,374c-7.3,0-13.8-1.5-19.6-4.5c-5.7-3.1-10.2-7.3-13.4-12.7c-3.2-5.4-4.9-11.5-4.9-18.3s1.6-12.9,4.9-18.3s7.7-9.6,13.4-12.5
	c5.8-3.1,12.3-4.6,19.6-4.6s13.7,1.5,19.5,4.6c5.7,3,10.2,7.2,13.4,12.5c3.2,5.4,4.9,11.5,4.9,18.3s-1.6,12.9-4.9,18.3
	c-3.2,5.4-7.7,9.6-13.4,12.7C201.6,372.5,195.1,374,187.9,374z M187.9,357.6c5.1,0,9.3-1.7,12.5-5.1c3.3-3.5,5-8.1,5-14
	c0-5.8-1.7-10.4-5-13.8c-3.2-3.5-7.4-5.2-12.5-5.2s-9.3,1.7-12.7,5.2c-3.3,3.4-5,8-5,13.8c0,5.8,1.7,10.5,5,14
	C178.5,355.9,182.7,357.6,187.9,357.6z M258.6,374c-7.8,0-13.8-2-18.2-6.1c-4.4-4.2-6.5-10.1-6.5-17.7V278h20v71
	c0,2.9,0.7,5.2,2.2,6.8c1.5,1.5,3.7,2.3,6.4,2.3c1,0,2-0.1,3.1-0.4c1.1-0.3,2-0.6,2.6-0.9l0.9,15.5C265.6,373.5,262.1,374,258.6,374
	z M343,304.1V373H324v-8.2c-2.6,3-5.8,5.3-9.5,6.9c-3.7,1.5-7.6,2.3-11.9,2.3c-9,0-16.2-2.6-21.5-7.8c-5.3-5.2-7.9-12.9-7.9-23.2
	v-38.9h20v36c0,11.1,4.7,16.6,14,16.6c4.8,0,8.6-1.5,11.5-4.6c2.9-3.2,4.4-7.8,4.4-14v-34H343z M397.8,369.7c-2,1.5-4.4,2.6-7.3,3.3
	c-2.8,0.7-5.8,1-8.8,1c-8.3,0-14.6-2.1-19.1-6.3c-4.4-4.2-6.7-10.3-6.7-18.4v-60.4h20v16.8h17V321h-17v28c0,2.9,0.7,5.2,2.2,6.8
	c1.5,1.5,3.5,2.3,6.3,2.3c3.1,0,5.8-0.9,8.2-2.6L397.8,369.7z M404,304.1h20V373h-20V304.1z M414,294.5c-3.7,0-6.7-1.1-9-3.2
	c-2.3-2.1-3.5-4.8-3.5-7.9c0-3.2,1.2-5.8,3.5-7.9c2.3-2.1,5.3-3.2,9-3.2s6.7,1,9,3.1c2.3,2,3.5,4.6,3.5,7.7c0,3.3-1.2,6.1-3.5,8.3
	C420.6,293.5,417.6,294.5,414,294.5z M470.1,374c-7.3,0-13.8-1.5-19.6-4.5c-5.7-3.1-10.2-7.3-13.4-12.7c-3.2-5.4-4.9-11.5-4.9-18.3
	s1.6-12.9,4.9-18.3c3.2-5.4,7.7-9.6,13.4-12.5c5.8-3.1,12.3-4.6,19.6-4.6c7.3,0,13.7,1.5,19.5,4.6c5.7,3,10.2,7.2,13.4,12.5
	s4.9,11.5,4.9,18.3s-1.6,12.9-4.9,18.3c-3.2,5.4-7.7,9.6-13.4,12.7C483.9,372.5,477.4,374,470.1,374z M470.1,357.6
	c5.1,0,9.3-1.7,12.5-5.1c3.3-3.5,5-8.1,5-14c0-5.8-1.7-10.4-5-13.8c-3.2-3.5-7.4-5.2-12.5-5.2s-9.3,1.7-12.7,5.2
	c-3.3,3.4-5,8-5,13.8c0,5.8,1.7,10.5,5,14C460.8,355.9,465,357.6,470.1,357.6z M558,303.1c8.5,0,15.4,2.6,20.6,7.7
	c5.3,5.1,7.9,12.7,7.9,22.8V373h-20v-36.4c0-5.5-1.2-9.5-3.6-12.2c-2.4-2.7-5.8-4.1-10.4-4.1c-5,0-9,1.6-12,4.7
	c-3,3.1-4.5,7.7-4.5,13.8v34h-20v-68.9h19.1v8.1c2.6-2.9,5.9-5.1,9.9-6.7C549,303.9,553.3,303.1,558,303.1z M622.7,374
	c-5.7,0-11.3-0.7-16.8-2c-5.5-1.5-9.8-3.2-13.1-5.4l6.7-14.3c3.1,2,6.8,3.6,11.1,4.9c4.4,1.2,8.6,1.8,12.8,1.8
	c8.4,0,12.7-2.1,12.7-6.3c0-2-1.2-3.4-3.5-4.2c-2.3-0.9-5.8-1.6-10.6-2.2c-5.6-0.9-10.3-1.8-14-2.9c-3.7-1.1-6.9-3.1-9.6-5.9
	c-2.6-2.8-4-6.8-4-12c0-4.4,1.2-8.2,3.7-11.5c2.6-3.4,6.2-6.1,11-7.9c4.9-1.9,10.6-2.8,17.2-2.8c4.9,0,9.7,0.6,14.5,1.7
	c4.9,1,8.9,2.5,12,4.4l-6.7,14.2c-6.1-3.4-12.7-5.1-19.8-5.1c-4.3,0-7.5,0.6-9.6,1.8s-3.2,2.7-3.2,4.6c0,2.1,1.2,3.6,3.5,4.5
	s6,1.7,11,2.4c5.6,0.9,10.2,2,13.8,3.1c3.6,1,6.7,2.9,9.3,5.8c2.6,2.8,4,6.7,4,11.8c0,4.3-1.3,8.1-3.8,11.4
	c-2.6,3.3-6.3,5.9-11.3,7.8C635.2,373.1,629.4,374,622.7,374z M735,369.7c-2,1.5-4.4,2.6-7.3,3.3c-2.8,0.7-5.8,1-8.8,1
	c-8.3,0-14.6-2.1-19.1-6.3c-4.4-4.2-6.7-10.3-6.7-18.4v-60.4h20v16.8h17V321h-17v28c0,2.9,0.7,5.2,2.2,6.8c1.5,1.5,3.5,2.3,6.3,2.3
	c3.1,0,5.8-0.9,8.2-2.6L735,369.7z M771.8,374c-7.3,0-13.8-1.5-19.6-4.5c-5.7-3.1-10.2-7.3-13.4-12.7c-3.2-5.4-4.9-11.5-4.9-18.3
	s1.6-12.9,4.9-18.3c3.2-5.4,7.7-9.6,13.4-12.5c5.8-3.1,12.3-4.6,19.6-4.6s13.7,1.5,19.5,4.6c5.7,3,10.2,7.2,13.4,12.5
	s4.9,11.5,4.9,18.3s-1.6,12.9-4.9,18.3c-3.2,5.4-7.7,9.6-13.4,12.7C785.5,372.5,779,374,771.8,374z M771.8,357.6
	c5.1,0,9.3-1.7,12.5-5.1c3.3-3.5,5-8.1,5-14c0-5.8-1.7-10.4-5-13.8c-3.2-3.5-7.4-5.2-12.5-5.2s-9.3,1.7-12.7,5.2
	c-3.3,3.4-5,8-5,13.8c0,5.8,1.7,10.5,5,14C762.4,355.9,766.7,357.6,771.8,357.6z M890.4,369.7c-2,1.5-4.4,2.6-7.3,3.3
	c-2.8,0.7-5.8,1-8.8,1c-8.3,0-14.6-2.1-19.1-6.3c-4.4-4.2-6.7-10.3-6.7-18.4v-60.4h20v16.8h17V321h-17v28c0,2.9,0.7,5.2,2.2,6.8
	c1.5,1.5,3.5,2.3,6.3,2.3c3.1,0,5.8-0.9,8.2-2.6L890.4,369.7z M964.3,304.1V373h-19.1v-7.9c-4.9,6-12.1,9-21.5,9
	c-6.5,0-12.4-1.5-17.7-4.4c-5.2-2.9-9.3-7-12.3-12.4c-3-5.4-4.5-11.6-4.5-18.7s1.5-13.3,4.5-18.7s7.1-9.5,12.3-12.4
	c5.3-2.9,11.2-4.4,17.7-4.4c8.8,0,15.7,2.8,20.6,8.3v-7.3H964.3z M927.2,357.6c5,0,9.2-1.7,12.5-5.1c3.3-3.5,5-8.1,5-14
	c0-5.8-1.7-10.4-5-13.8c-3.3-3.5-7.5-5.2-12.5-5.2c-5.1,0-9.3,1.7-12.7,5.2c-3.3,3.4-5,8-5,13.8c0,5.8,1.7,10.5,5,14
	C917.8,355.9,922.1,357.6,927.2,357.6z M1011,374c-7.3,0-14-1.5-19.8-4.5c-5.8-3.1-10.4-7.3-13.7-12.7c-3.2-5.4-4.9-11.5-4.9-18.3
	s1.6-12.9,4.9-18.3c3.3-5.4,7.9-9.6,13.7-12.5c5.9-3.1,12.5-4.6,19.8-4.6c7.2,0,13.6,1.5,18.9,4.6c5.5,3,9.4,7.3,11.9,12.9
	l-15.5,8.3c-3.6-6.3-8.8-9.5-15.5-9.5c-5.2,0-9.5,1.7-12.9,5.1c-3.4,3.4-5.1,8.1-5.1,14s1.7,10.5,5.1,14c3.4,3.4,7.7,5.1,12.9,5.1
	c6.8,0,12-3.2,15.5-9.5l15.5,8.4c-2.5,5.5-6.4,9.7-11.9,12.8C1024.5,372.5,1018.2,374,1011,374z M1077.2,346l-9.6,9.5V373h-20v-95
	h20v53.8l29.2-27.6h23.8l-28.7,29.2l31.2,39.7H1099L1077.2,346z M1151.8,374c-7.8,0-13.8-2-18.2-6.1c-4.3-4.2-6.5-10.1-6.5-17.7V278
	h20v71c0,2.9,0.7,5.2,2.2,6.8c1.5,1.5,3.7,2.3,6.4,2.3c1,0,2.1-0.1,3.1-0.4c1.1-0.3,2-0.6,2.6-0.9l0.9,15.5
	C1158.8,373.5,1155.3,374,1151.8,374z M1200.2,358c3.6,0,6.8-0.5,9.5-1.5c2.8-1.1,5.4-2.8,7.8-5.1l10.6,11.5
	c-6.5,7.4-16,11.1-28.4,11.1c-7.8,0-14.6-1.5-20.6-4.5c-6-3.1-10.6-7.3-13.8-12.7c-3.2-5.4-4.9-11.5-4.9-18.3
	c0-6.7,1.6-12.8,4.7-18.2c3.2-5.5,7.6-9.7,13.2-12.7c5.6-3.1,11.9-4.6,18.9-4.6c6.6,0,12.5,1.4,17.9,4.2c5.4,2.7,9.6,6.7,12.8,12
	c3.2,5.2,4.9,11.4,4.9,18.6l-50.9,9.9c1.5,3.4,3.7,6,6.8,7.7C1191.9,357.2,1195.7,358,1200.2,358z M1197.3,318.2
	c-5,0-9.1,1.6-12.3,4.9c-3.2,3.2-4.8,7.7-5,13.4l33.5-6.5c-0.9-3.6-2.9-6.4-5.8-8.6C1204.9,319.3,1201.4,318.2,1197.3,318.2z
	 M133.7,500.7c-2,1.5-4.4,2.6-7.3,3.3c-2.8,0.7-5.8,1-8.8,1c-8.3,0-14.6-2.1-19.1-6.3c-4.4-4.2-6.7-10.3-6.7-18.4v-60.4h20v16.8h17
	V452h-17v28c0,2.9,0.7,5.2,2.2,6.8c1.5,1.5,3.5,2.3,6.3,2.3c3.1,0,5.8-0.9,8.2-2.6L133.7,500.7z M181.7,434.1
	c8.5,0,15.4,2.6,20.6,7.7c5.3,5.1,7.9,12.7,7.9,22.8V504h-20v-36.4c0-5.5-1.2-9.5-3.6-12.2c-2.4-2.7-5.8-4.1-10.4-4.1
	c-5,0-9,1.6-12,4.7c-3,3.1-4.5,7.7-4.5,13.8v34h-20v-95h20v33.3c2.6-2.6,5.8-4.7,9.6-6C173.2,434.8,177.3,434.1,181.7,434.1z
	 M258.7,489c3.6,0,6.7-0.5,9.5-1.5c2.8-1.1,5.4-2.8,7.8-5.1l10.6,11.5c-6.5,7.4-16,11.1-28.4,11.1c-7.8,0-14.6-1.5-20.6-4.5
	c-6-3.1-10.6-7.3-13.8-12.7c-3.2-5.4-4.9-11.5-4.9-18.3c0-6.7,1.6-12.8,4.7-18.2c3.2-5.5,7.6-9.7,13.2-12.7
	c5.6-3.1,11.9-4.6,18.9-4.6c6.6,0,12.5,1.4,17.9,4.2c5.4,2.7,9.6,6.7,12.8,12c3.2,5.2,4.9,11.4,4.9,18.6l-50.9,9.9
	c1.5,3.4,3.7,6,6.8,7.7C250.3,488.2,254.1,489,258.7,489z M255.7,449.2c-5,0-9.1,1.6-12.3,4.9c-3.2,3.2-4.8,7.7-5,13.4L272,461
	c-0.9-3.6-2.9-6.4-5.8-8.6C263.3,450.3,259.8,449.2,255.7,449.2z M418.9,434.1c8.6,0,15.4,2.6,20.5,7.7c5.1,5,7.7,12.6,7.7,22.8V504
	h-20v-36.4c0-5.5-1.2-9.5-3.5-12.2c-2.2-2.7-5.4-4.1-9.6-4.1c-4.7,0-8.4,1.5-11.1,4.6c-2.7,3-4.1,7.5-4.1,13.4V504h-20v-36.4
	c0-10.8-4.4-16.3-13.1-16.3c-4.6,0-8.3,1.5-11,4.6c-2.7,3-4.1,7.5-4.1,13.4V504h-20v-68.9h19.1v7.9c2.6-2.9,5.7-5.1,9.3-6.7
	c3.8-1.5,7.9-2.3,12.3-2.3c4.9,0,9.3,1,13.2,2.9c3.9,1.9,7.1,4.7,9.5,8.3c2.8-3.6,6.4-6.4,10.6-8.3
	C409.1,435.1,413.8,434.1,418.9,434.1z M493.4,505c-7.3,0-13.8-1.5-19.6-4.5c-5.7-3.1-10.2-7.3-13.4-12.7
	c-3.2-5.4-4.9-11.5-4.9-18.3s1.6-12.9,4.9-18.3c3.2-5.4,7.7-9.6,13.4-12.5c5.8-3.1,12.3-4.6,19.6-4.6s13.7,1.5,19.5,4.6
	c5.7,3,10.2,7.2,13.4,12.5c3.2,5.4,4.9,11.5,4.9,18.3s-1.6,12.9-4.9,18.3c-3.2,5.4-7.7,9.6-13.4,12.7
	C507.1,503.5,500.6,505,493.4,505z M493.4,488.6c5.1,0,9.3-1.7,12.5-5.1c3.3-3.5,5-8.1,5-14c0-5.8-1.7-10.4-5-13.8
	c-3.2-3.5-7.4-5.2-12.5-5.2s-9.3,1.7-12.7,5.2c-3.3,3.4-5,8-5,13.8c0,5.8,1.7,10.5,5,14C484,486.9,488.3,488.6,493.4,488.6z
	 M609.5,409v95h-19.1v-7.9c-4.9,6-12.1,9-21.5,9c-6.5,0-12.4-1.5-17.7-4.4c-5.2-2.9-9.3-7-12.3-12.4c-3-5.4-4.5-11.6-4.5-18.7
	s1.5-13.3,4.5-18.7s7.1-9.5,12.3-12.4c5.3-2.9,11.2-4.4,17.7-4.4c8.8,0,15.7,2.8,20.6,8.3V409H609.5z M572.4,488.6
	c5,0,9.2-1.7,12.5-5.1c3.3-3.5,5-8.1,5-14c0-5.8-1.7-10.4-5-13.8c-3.3-3.5-7.5-5.2-12.5-5.2c-5.1,0-9.3,1.7-12.7,5.2
	c-3.3,3.4-5,8-5,13.8c0,5.8,1.7,10.5,5,14C563.1,486.9,567.3,488.6,572.4,488.6z M657.6,489c3.6,0,6.7-0.5,9.5-1.5
	c2.8-1.1,5.4-2.8,7.8-5.1l10.6,11.5c-6.5,7.4-16,11.1-28.4,11.1c-7.8,0-14.6-1.5-20.6-4.5c-6-3.1-10.6-7.3-13.8-12.7
	c-3.2-5.4-4.9-11.5-4.9-18.3c0-6.7,1.6-12.8,4.7-18.2c3.2-5.5,7.6-9.7,13.2-12.7c5.6-3.1,11.9-4.6,18.9-4.6c6.6,0,12.5,1.4,17.9,4.2
	c5.4,2.7,9.6,6.7,12.8,12c3.2,5.2,4.9,11.4,4.9,18.6l-50.9,9.9c1.5,3.4,3.7,6,6.8,7.7C649.2,488.2,653,489,657.6,489z M654.6,449.2
	c-5,0-9.1,1.6-12.3,4.9c-3.2,3.2-4.8,7.7-5,13.4l33.5-6.5c-0.9-3.6-2.9-6.4-5.8-8.6C662.2,450.3,658.7,449.2,654.6,449.2z
	 M717.6,444.2c2.4-3.3,5.6-5.8,9.6-7.6c4.1-1.7,8.8-2.6,14.1-2.6v18.4c-2.2-0.2-3.7-0.3-4.5-0.3c-5.7,0-10.2,1.6-13.4,4.9
	c-3.2,3.2-4.9,7.9-4.9,14.3V504h-20v-68.9h19.1V444.2z M789.9,434.1c8.5,0,15.4,2.6,20.6,7.7c5.3,5.1,7.9,12.7,7.9,22.8V504h-20
	v-36.4c0-5.5-1.2-9.5-3.6-12.2c-2.4-2.7-5.8-4.1-10.4-4.1c-5,0-9,1.6-12,4.7c-3,3.1-4.5,7.7-4.5,13.8v34h-20v-68.9h19.1v8.1
	c2.6-2.9,5.9-5.1,9.9-6.7C780.9,434.9,785.2,434.1,789.9,434.1z M971.4,435.1v38c0,10.2-2.8,18-8.3,23.6c-5.5,5.5-13.4,8.3-23.7,8.3
	c-4.9,0-9.3-0.8-13.2-2.3c-3.8-1.5-6.9-4-9.5-7.4c-2.6,3.4-5.7,5.9-9.5,7.4s-8.2,2.3-13.3,2.3c-10.3,0-18.2-2.8-23.7-8.3
	s-8.2-13.4-8.2-23.6v-38h20v36.5c0,5.7,1,9.9,2.9,12.7c2,2.6,5,4,9.2,4c4.3,0,7.4-1.4,9.5-4.1c2-2.7,3.1-6.9,3.1-12.5v-36.5h20v36.5
	c0,5.6,1,9.8,3.1,12.5c2,2.7,5.2,4.1,9.5,4.1c4.2,0,7.3-1.3,9.2-4c2-2.7,2.9-7,2.9-12.7v-36.5H971.4z M1019,489
	c3.6,0,6.7-0.5,9.5-1.5c2.8-1.1,5.4-2.8,7.8-5.1l10.6,11.5c-6.5,7.4-16,11.1-28.4,11.1c-7.8,0-14.6-1.5-20.6-4.5
	c-6-3.1-10.6-7.3-13.8-12.7c-3.2-5.4-4.9-11.5-4.9-18.3c0-6.7,1.6-12.8,4.7-18.2c3.2-5.5,7.6-9.7,13.2-12.7
	c5.6-3.1,11.9-4.6,18.9-4.6c6.6,0,12.5,1.4,17.9,4.2c5.4,2.7,9.6,6.7,12.8,12c3.2,5.2,4.9,11.4,4.9,18.6l-50.9,9.9
	c1.5,3.4,3.7,6,6.8,7.7C1010.6,488.2,1014.4,489,1019,489z M1016,449.2c-5,0-9.1,1.6-12.3,4.9c-3.2,3.2-4.8,7.7-5,13.4l33.5-6.5
	c-0.9-3.6-2.9-6.4-5.8-8.6C1023.6,450.3,1020.1,449.2,1016,449.2z M1100.6,434.1c6.4,0,12.2,1.5,17.4,4.5c5.3,2.9,9.4,7,12.4,12.4
	c3,5.3,4.5,11.5,4.5,18.6s-1.5,13.3-4.5,18.7c-3,5.3-7.1,9.4-12.4,12.4c-5.2,2.9-11,4.4-17.4,4.4c-9.5,0-16.7-3-21.6-9v7.9h-19.1
	v-95h20v33.4C1084.9,436.9,1091.8,434.1,1100.6,434.1z M1097.2,488.6c5.1,0,9.3-1.7,12.5-5.1c3.3-3.5,5-8.1,5-14
	c0-5.8-1.7-10.4-5-13.8c-3.2-3.5-7.4-5.2-12.5-5.2s-9.3,1.7-12.7,5.2c-3.2,3.4-4.9,8-4.9,13.8c0,5.8,1.6,10.5,4.9,14
	C1087.8,486.9,1092,488.6,1097.2,488.6z"/>
<path class="st1" d="M1149.8,505c-3.5,0-6.4-1.2-8.8-3.6s-3.6-5.4-3.6-9c0-3.7,1.2-6.6,3.6-8.8c2.4-2.3,5.3-3.5,8.8-3.5
	s6.4,1.2,8.8,3.5c2.4,2.2,3.6,5.2,3.6,8.8c0,3.6-1.2,6.6-3.6,9S1153.3,505,1149.8,505z"/>
</svg>
