<?xml version="1.0" encoding="UTF-8"?>
<svg id="Layer_1" data-name="Layer 1" xmlns="http://www.w3.org/2000/svg" version="1.1" viewBox="0 0 1320 563.9">
  <defs>
    <style>
      .cls-1 {
        stroke-linecap: square;
        stroke-width: 3px;
      }

      .cls-1, .cls-2 {
        fill: none;
        stroke: #ff5124;
        stroke-miterlimit: 10;
      }

      .cls-3 {
        fill: #000;
      }

      .cls-3, .cls-4, .cls-5, .cls-6 {
        stroke-width: 0px;
      }

      .cls-4 {
        fill: #ff4c1f;
      }

      .cls-2 {
        stroke-width: 1.5px;
      }

      .cls-5 {
        fill: #0a0a0a;
      }

      .cls-6 {
        fill: #ff5124;
      }
    </style>
  </defs>
  <path class="cls-5" d="M133.9,19.9c8.3,0,15.5,1.6,21.6,4.9s10.9,8,14.3,14.3c3.4,6.3,5.1,14,5.1,22.9v49h-20.7v-21.5h-41v21.5h-20.3v-49c0-9,1.7-16.6,5.1-22.9,3.4-6.3,8.2-11.1,14.3-14.3,6.2-3.3,13.4-4.9,21.6-4.9ZM154.3,72.9v-12.8c0-7.4-1.8-13-5.5-16.8s-8.7-5.8-15-5.8-11.4,1.9-15.1,5.8c-3.6,3.8-5.4,9.3-5.4,16.8v12.8h41ZM253.4,112c-7.3,0-14-1.5-19.8-4.5-5.8-3.1-10.4-7.3-13.7-12.7-3.2-5.4-4.9-11.5-4.9-18.3s1.6-12.9,4.9-18.3c3.3-5.4,7.9-9.6,13.7-12.5,5.9-3.1,12.5-4.6,19.8-4.6s13.6,1.5,18.9,4.6c5.5,3,9.4,7.3,11.9,12.9l-15.5,8.4c-3.6-6.3-8.7-9.5-15.5-9.5s-9.5,1.7-12.9,5.1c-3.4,3.4-5.1,8.1-5.1,14s1.7,10.5,5.1,14c3.4,3.4,7.7,5.1,12.9,5.1s12-3.2,15.5-9.5l15.5,8.4c-2.5,5.5-6.4,9.7-11.9,12.8-5.4,3.1-11.7,4.6-18.9,4.6ZM309.7,51.2c2.4-3.3,5.6-5.8,9.6-7.6,4.1-1.7,8.8-2.6,14.1-2.6v18.4c-2.2-.2-3.7-.3-4.5-.3-5.7,0-10.2,1.6-13.4,4.9-3.2,3.2-4.9,7.9-4.9,14.3v32.7h-20V42.1h19.1v9.1h0ZM374.2,96c3.6,0,6.7-.5,9.5-1.5,2.8-1.1,5.4-2.8,7.8-5.1l10.6,11.5c-6.5,7.4-16,11.1-28.4,11.1s-14.6-1.5-20.6-4.5c-6-3.1-10.6-7.3-13.8-12.7-3.2-5.4-4.9-11.5-4.9-18.3s1.6-12.8,4.7-18.2c3.2-5.5,7.6-9.7,13.2-12.7,5.6-3.1,11.9-4.6,18.9-4.6s12.5,1.4,17.9,4.2c5.4,2.7,9.6,6.7,12.8,12,3.2,5.2,4.9,11.4,4.9,18.6l-50.9,9.9c1.5,3.4,3.7,6,6.8,7.7,3.1,1.8,7,2.6,11.5,2.6ZM371.2,56.2c-5,0-9.1,1.6-12.3,4.9-3.2,3.2-4.8,7.7-5,13.4l33.5-6.5c-.9-3.6-2.9-6.4-5.8-8.6s-6.3-3.2-10.4-3.2ZM485,42.1v68.9h-19.1v-7.9c-4.9,6-12.1,9-21.5,9s-12.4-1.5-17.7-4.4c-5.2-2.9-9.3-7-12.3-12.4s-4.5-11.6-4.5-18.7,1.5-13.3,4.5-18.7,7.1-9.5,12.3-12.4c5.3-2.9,11.2-4.4,17.7-4.4s15.7,2.8,20.6,8.3v-7.3s20,0,20,0ZM447.9,95.6c5,0,9.2-1.7,12.5-5.1,3.3-3.5,5-8.1,5-14s-1.7-10.4-5-13.8c-3.3-3.5-7.5-5.2-12.5-5.2s-9.3,1.7-12.7,5.2c-3.3,3.4-5,8-5,13.8s1.7,10.5,5,14c3.3,3.4,7.6,5.1,12.7,5.1ZM539.8,107.7c-2,1.5-4.4,2.6-7.3,3.3-2.8.7-5.8,1-8.8,1-8.3,0-14.6-2.1-19.1-6.3-4.4-4.2-6.7-10.3-6.7-18.4V26.9h20v16.8h17v15.3h-17v28c0,2.9.7,5.2,2.2,6.8,1.5,1.5,3.5,2.3,6.3,2.3s5.8-.9,8.2-2.6l5.2,14.2ZM546,42.1h20v68.9h-20V42.1ZM556,32.5c-3.7,0-6.7-1.1-9-3.2s-3.5-4.8-3.5-7.9,1.2-5.8,3.5-7.9c2.3-2.1,5.3-3.2,9-3.2s6.7,1,9,3.1,3.5,4.6,3.5,7.7-1.2,6.1-3.5,8.3c-2.4,2.1-5.3,3.1-9,3.1ZM647.7,42.1l-29,68.9h-20.6l-28.9-68.9h20.6l19,46.9,19.7-46.8h19.2ZM683.6,96c3.6,0,6.7-.5,9.5-1.5,2.8-1.1,5.4-2.8,7.8-5.1l10.6,11.5c-6.5,7.4-16,11.1-28.4,11.1s-14.6-1.5-20.6-4.5c-6-3.1-10.6-7.3-13.8-12.7s-4.9-11.5-4.9-18.3,1.6-12.8,4.7-18.2c3.2-5.5,7.6-9.7,13.2-12.7,5.6-3.1,11.9-4.6,18.9-4.6s12.5,1.4,17.9,4.2c5.4,2.7,9.6,6.7,12.8,12,3.2,5.2,4.9,11.4,4.9,18.6l-50.9,9.9c1.5,3.4,3.7,6,6.8,7.7,3.1,1.8,7,2.6,11.5,2.6ZM680.6,56.2c-5,0-9.1,1.6-12.3,4.9-3.2,3.2-4.8,7.7-5,13.4l33.5-6.5c-.9-3.6-2.9-6.4-5.8-8.6s-6.3-3.2-10.4-3.2ZM778.8,112c-5.7,0-11.3-.7-16.8-2-5.5-1.5-9.8-3.2-13.1-5.4l6.7-14.3c3.1,2,6.8,3.6,11.1,4.9,4.4,1.2,8.6,1.8,12.8,1.8,8.4,0,12.7-2.1,12.7-6.3s-1.2-3.4-3.5-4.2c-2.3-.9-5.8-1.6-10.6-2.2-5.6-.9-10.3-1.8-14-2.9s-6.9-3.1-9.6-5.9c-2.6-2.8-4-6.8-4-12s1.2-8.2,3.7-11.5c2.6-3.4,6.2-6.1,11-7.9,4.9-1.9,10.6-2.8,17.2-2.8s9.7.6,14.5,1.7c4.9,1,8.9,2.5,12,4.4l-6.7,14.2c-6.1-3.4-12.7-5.1-19.8-5.1s-7.5.6-9.6,1.8-3.2,2.7-3.2,4.6,1.2,3.6,3.5,4.5,6,1.7,11,2.4c5.6.9,10.2,2,13.8,3.1,3.6,1,6.7,2.9,9.3,5.8,2.6,2.8,4,6.7,4,11.8s-1.3,8.1-3.8,11.4-6.3,5.9-11.3,7.8c-4.7,1.4-10.5,2.3-17.3,2.3ZM860,107.7c-2,1.5-4.4,2.6-7.3,3.3-2.8.7-5.8,1-8.8,1-8.3,0-14.6-2.1-19.1-6.3-4.4-4.2-6.7-10.3-6.7-18.4V26.9h20v16.8h17v15.3h-17v28c0,2.9.7,5.2,2.2,6.8,1.5,1.5,3.5,2.3,6.3,2.3s5.8-.9,8.2-2.6l5.2,14.2ZM935.5,42.1v68.9h-18.9v-8.2c-2.6,3-5.8,5.3-9.5,6.9-3.7,1.5-7.6,2.3-11.9,2.3-9,0-16.2-2.6-21.5-7.8-5.3-5.2-7.9-12.9-7.9-23.2v-38.9h20v36c0,11.1,4.7,16.6,14,16.6s8.6-1.5,11.5-4.6c2.9-3.2,4.4-7.8,4.4-14v-34h19.8ZM1019.1,16v95h-19.1v-7.9c-4.9,6-12.1,9-21.5,9s-12.4-1.5-17.7-4.4c-5.2-2.9-9.3-7-12.3-12.4s-4.5-11.6-4.5-18.7,1.5-13.3,4.5-18.7,7.1-9.5,12.3-12.4c5.3-2.9,11.2-4.4,17.7-4.4s15.7,2.8,20.6,8.3V16h20ZM981.9,95.6c5,0,9.2-1.7,12.5-5.1,3.3-3.5,5-8.1,5-14s-1.7-10.4-5-13.8c-3.3-3.5-7.5-5.2-12.5-5.2s-9.3,1.7-12.7,5.2c-3.3,3.4-5,8-5,13.8s1.7,10.5,5,14c3.4,3.4,7.6,5.1,12.7,5.1ZM1032.4,42.1h20v68.9h-20V42.1ZM1042.4,32.5c-3.7,0-6.7-1.1-9-3.2s-3.5-4.8-3.5-7.9,1.2-5.8,3.5-7.9c2.3-2.1,5.3-3.2,9-3.2s6.7,1,9,3.1c2.3,2,3.5,4.6,3.5,7.7s-1.2,6.1-3.5,8.3c-2.3,2.1-5.3,3.1-9,3.1ZM1098.6,112c-7.2,0-13.8-1.5-19.6-4.5-5.7-3.1-10.2-7.3-13.4-12.7s-4.9-11.5-4.9-18.3,1.6-12.9,4.9-18.3,7.7-9.6,13.4-12.5c5.8-3.1,12.3-4.6,19.6-4.6s13.7,1.5,19.5,4.6c5.7,3,10.2,7.2,13.4,12.5s4.9,11.5,4.9,18.3-1.6,12.9-4.9,18.3-7.7,9.6-13.4,12.7c-5.8,3-12.3,4.5-19.5,4.5ZM1098.6,95.6c5.1,0,9.3-1.7,12.5-5.1,3.3-3.5,5-8.1,5-14s-1.7-10.4-5-13.8c-3.2-3.5-7.4-5.2-12.5-5.2s-9.3,1.7-12.7,5.2c-3.3,3.4-5,8-5,13.8s1.7,10.5,5,14c3.3,3.4,7.5,5.1,12.7,5.1ZM201.1,173.1v38c0,10.2-2.8,18-8.3,23.6-5.5,5.5-13.4,8.3-23.7,8.3s-9.3-.8-13.2-2.3c-3.8-1.5-6.9-4-9.5-7.4-2.6,3.4-5.7,5.9-9.5,7.4s-8.2,2.3-13.3,2.3c-10.3,0-18.2-2.8-23.7-8.3s-8.2-13.4-8.2-23.6v-38h20v36.5c0,5.7,1,9.9,2.9,12.7,2,2.6,5,4,9.2,4s7.4-1.4,9.5-4.1c2-2.7,3.1-6.9,3.1-12.5v-36.5h20v36.5c0,5.6,1,9.8,3.1,12.5,2,2.7,5.2,4.1,9.5,4.1s7.3-1.3,9.2-4c2-2.7,2.9-7,2.9-12.7v-36.5h20ZM214,173.1h20v68.9h-20v-68.9ZM224,163.5c-3.7,0-6.7-1.1-9-3.2s-3.5-4.8-3.5-7.9,1.2-5.8,3.5-7.9c2.3-2.1,5.3-3.2,9-3.2s6.7,1,9,3.1,3.5,4.6,3.5,7.7-1.2,6.1-3.5,8.3c-2.4,2.1-5.4,3.1-9,3.1ZM288.8,238.7c-2,1.5-4.4,2.6-7.3,3.3-2.8.7-5.8,1-8.8,1-8.3,0-14.6-2.1-19.1-6.3s-6.7-10.3-6.7-18.4v-60.4h20v16.8h17v15.3h-17v28c0,2.9.7,5.2,2.2,6.8,1.5,1.5,3.5,2.3,6.3,2.3s5.8-.9,8.2-2.6l5.2,14.2ZM336.8,172.1c8.5,0,15.4,2.6,20.6,7.7,5.3,5.1,7.9,12.7,7.9,22.8v39.4h-20v-36.4c0-5.5-1.2-9.5-3.6-12.2s-5.8-4.1-10.4-4.1-9,1.6-12,4.7c-3,3.1-4.5,7.7-4.5,13.8v34h-20v-95h20v33.3c2.6-2.6,5.8-4.7,9.6-6,3.9-1.3,8-2,12.4-2ZM409.5,173.1h20v68.9h-20v-68.9ZM419.5,163.5c-3.7,0-6.7-1.1-9-3.2-2.3-2.1-3.5-4.8-3.5-7.9s1.2-5.8,3.5-7.9c2.3-2.1,5.3-3.2,9-3.2s6.7,1,9,3.1c2.3,2,3.5,4.6,3.5,7.7s-1.2,6.1-3.5,8.3c-2.4,2.1-5.4,3.1-9,3.1ZM484.7,172.1c8.5,0,15.4,2.6,20.6,7.7,5.3,5.1,7.9,12.7,7.9,22.8v39.4h-20v-36.4c0-5.5-1.2-9.5-3.6-12.2s-5.8-4.1-10.4-4.1-9,1.6-12,4.7c-3,3.1-4.5,7.7-4.5,13.8v34h-20v-68.9h19.1v8.1c2.6-2.9,5.9-5.1,9.9-6.7,4-1.4,8.3-2.2,13-2.2ZM568.1,172.1c8.5,0,15.4,2.6,20.6,7.7,5.3,5.1,7.9,12.7,7.9,22.8v39.4h-20v-36.4c0-5.5-1.2-9.5-3.6-12.2-2.4-2.7-5.8-4.1-10.4-4.1s-9,1.6-12,4.7c-3,3.1-4.5,7.7-4.5,13.8v34h-20v-68.9h19.1v8.1c2.6-2.9,5.9-5.1,9.9-6.7,4-1.4,8.3-2.2,13-2.2ZM643.1,243c-7.3,0-13.8-1.5-19.6-4.5-5.7-3.1-10.2-7.3-13.4-12.7s-4.9-11.5-4.9-18.3,1.6-12.9,4.9-18.3c3.2-5.4,7.7-9.6,13.4-12.5,5.8-3.1,12.3-4.6,19.6-4.6s13.7,1.5,19.5,4.6c5.7,3,10.2,7.2,13.4,12.5,3.2,5.4,4.9,11.5,4.9,18.3s-1.6,12.9-4.9,18.3c-3.2,5.4-7.7,9.6-13.4,12.7-5.7,3-12.2,4.5-19.5,4.5ZM643.1,226.6c5.1,0,9.3-1.7,12.5-5.1,3.3-3.5,5-8.1,5-14s-1.7-10.4-5-13.8c-3.2-3.5-7.4-5.2-12.5-5.2s-9.3,1.7-12.7,5.2c-3.3,3.4-5,8-5,13.8s1.7,10.5,5,14c3.4,3.4,7.6,5.1,12.7,5.1ZM755.6,173.1l-29,68.9h-20.6l-29-68.9h20.6l19.1,46.8,19.7-46.8h19.2ZM826.7,173.1v68.9h-19.1v-7.9c-4.9,6-12.1,9-21.5,9s-12.4-1.5-17.7-4.4c-5.2-2.9-9.3-7-12.3-12.4s-4.5-11.6-4.5-18.7,1.5-13.3,4.5-18.7,7.1-9.5,12.3-12.4c5.3-2.9,11.2-4.4,17.7-4.4s15.7,2.8,20.6,8.3v-7.3h20ZM789.5,226.6c5,0,9.2-1.7,12.5-5.1,3.3-3.5,5-8.1,5-14s-1.7-10.4-5-13.8c-3.3-3.5-7.5-5.2-12.5-5.2s-9.3,1.7-12.7,5.2c-3.3,3.4-5,8-5,13.8s1.7,10.5,5,14c3.4,3.4,7.6,5.1,12.7,5.1ZM881.5,238.7c-2,1.5-4.4,2.6-7.3,3.3-2.8.7-5.8,1-8.8,1-8.3,0-14.6-2.1-19.1-6.3-4.4-4.2-6.7-10.3-6.7-18.4v-60.4h20v16.8h17v15.3h-17v28c0,2.9.7,5.2,2.2,6.8,1.5,1.5,3.5,2.3,6.3,2.3s5.8-.9,8.2-2.6l5.2,14.2ZM887.7,173.1h20v68.9h-20v-68.9ZM897.6,163.5c-3.7,0-6.7-1.1-9-3.2s-3.5-4.8-3.5-7.9,1.2-5.8,3.5-7.9c2.3-2.1,5.3-3.2,9-3.2s6.7,1,9,3.1c2.3,2,3.5,4.6,3.5,7.7s-1.2,6.1-3.5,8.3c-2.3,2.1-5.3,3.1-9,3.1ZM989.4,173.1l-29.1,68.9h-20.6l-28.9-68.9h20.6l19.1,46.8,19.7-46.8h19.2ZM1025.2,227c3.6,0,6.8-.5,9.5-1.5,2.8-1.1,5.4-2.8,7.8-5.1l10.6,11.5c-6.5,7.4-16,11.1-28.4,11.1s-14.6-1.5-20.6-4.5c-6-3.1-10.6-7.3-13.8-12.7s-4.9-11.5-4.9-18.3,1.6-12.8,4.7-18.2c3.2-5.5,7.6-9.7,13.2-12.7,5.6-3.1,11.9-4.6,18.9-4.6s12.5,1.4,17.9,4.2c5.4,2.7,9.6,6.7,12.8,12,3.2,5.2,4.9,11.4,4.9,18.6l-50.9,9.9c1.5,3.4,3.7,6,6.8,7.7,3.2,1.8,7,2.6,11.5,2.6ZM1022.3,187.2c-5,0-9.1,1.6-12.3,4.9-3.2,3.2-4.8,7.7-5,13.4l33.5-6.5c-.9-3.6-2.9-6.4-5.8-8.6-2.8-2.1-6.3-3.2-10.4-3.2ZM115.4,374c-5.7,0-11.3-.7-16.8-2-5.5-1.5-9.8-3.2-13.1-5.4l6.7-14.3c3.1,2,6.8,3.6,11.1,4.9,4.4,1.2,8.6,1.8,12.8,1.8,8.4,0,12.7-2.1,12.7-6.3s-1.2-3.4-3.5-4.2c-2.3-.9-5.8-1.6-10.6-2.2-5.6-.9-10.3-1.8-14-2.9s-6.9-3.1-9.6-5.9c-2.6-2.8-4-6.8-4-12s1.2-8.2,3.7-11.5c2.6-3.4,6.2-6.1,11-7.9,4.9-1.9,10.6-2.8,17.2-2.8s9.7.6,14.5,1.7c4.9,1,8.9,2.5,12,4.4l-6.7,14.2c-6.1-3.4-12.7-5.1-19.8-5.1s-7.5.6-9.6,1.8c-2.1,1.2-3.2,2.7-3.2,4.6s1.2,3.6,3.5,4.5,6,1.7,11,2.4c5.6.9,10.2,2,13.8,3.1,3.6,1,6.7,2.9,9.3,5.8,2.6,2.8,4,6.7,4,11.8s-1.3,8.1-3.8,11.4c-2.6,3.3-6.3,5.9-11.3,7.8-4.8,1.4-10.6,2.3-17.3,2.3ZM187.9,374c-7.3,0-13.8-1.5-19.6-4.5-5.7-3.1-10.2-7.3-13.4-12.7-3.2-5.4-4.9-11.5-4.9-18.3s1.6-12.9,4.9-18.3,7.7-9.6,13.4-12.5c5.8-3.1,12.3-4.6,19.6-4.6s13.7,1.5,19.5,4.6c5.7,3,10.2,7.2,13.4,12.5,3.2,5.4,4.9,11.5,4.9,18.3s-1.6,12.9-4.9,18.3c-3.2,5.4-7.7,9.6-13.4,12.7-5.8,3-12.3,4.5-19.5,4.5ZM187.9,357.6c5.1,0,9.3-1.7,12.5-5.1,3.3-3.5,5-8.1,5-14s-1.7-10.4-5-13.8c-3.2-3.5-7.4-5.2-12.5-5.2s-9.3,1.7-12.7,5.2c-3.3,3.4-5,8-5,13.8s1.7,10.5,5,14c3.3,3.4,7.5,5.1,12.7,5.1ZM258.6,374c-7.8,0-13.8-2-18.2-6.1-4.4-4.2-6.5-10.1-6.5-17.7v-72.2h20v71c0,2.9.7,5.2,2.2,6.8,1.5,1.5,3.7,2.3,6.4,2.3s2-.1,3.1-.4,2-.6,2.6-.9l.9,15.5c-3.5,1.2-7,1.7-10.5,1.7ZM343,304.1v68.9h-19v-8.2c-2.6,3-5.8,5.3-9.5,6.9-3.7,1.5-7.6,2.3-11.9,2.3-9,0-16.2-2.6-21.5-7.8-5.3-5.2-7.9-12.9-7.9-23.2v-38.9h20v36c0,11.1,4.7,16.6,14,16.6s8.6-1.5,11.5-4.6c2.9-3.2,4.4-7.8,4.4-14v-34h19.9ZM397.8,369.7c-2,1.5-4.4,2.6-7.3,3.3-2.8.7-5.8,1-8.8,1-8.3,0-14.6-2.1-19.1-6.3-4.4-4.2-6.7-10.3-6.7-18.4v-60.4h20v16.8h17v15.3h-17v28c0,2.9.7,5.2,2.2,6.8,1.5,1.5,3.5,2.3,6.3,2.3s5.8-.9,8.2-2.6l5.2,14.2ZM404,304.1h20v68.9h-20v-68.9ZM414,294.5c-3.7,0-6.7-1.1-9-3.2s-3.5-4.8-3.5-7.9,1.2-5.8,3.5-7.9,5.3-3.2,9-3.2,6.7,1,9,3.1c2.3,2,3.5,4.6,3.5,7.7s-1.2,6.1-3.5,8.3c-2.4,2.1-5.4,3.1-9,3.1ZM470.1,374c-7.3,0-13.8-1.5-19.6-4.5-5.7-3.1-10.2-7.3-13.4-12.7-3.2-5.4-4.9-11.5-4.9-18.3s1.6-12.9,4.9-18.3c3.2-5.4,7.7-9.6,13.4-12.5,5.8-3.1,12.3-4.6,19.6-4.6s13.7,1.5,19.5,4.6c5.7,3,10.2,7.2,13.4,12.5s4.9,11.5,4.9,18.3-1.6,12.9-4.9,18.3c-3.2,5.4-7.7,9.6-13.4,12.7-5.7,3-12.2,4.5-19.5,4.5ZM470.1,357.6c5.1,0,9.3-1.7,12.5-5.1,3.3-3.5,5-8.1,5-14s-1.7-10.4-5-13.8c-3.2-3.5-7.4-5.2-12.5-5.2s-9.3,1.7-12.7,5.2c-3.3,3.4-5,8-5,13.8s1.7,10.5,5,14c3.4,3.4,7.6,5.1,12.7,5.1ZM558,303.1c8.5,0,15.4,2.6,20.6,7.7,5.3,5.1,7.9,12.7,7.9,22.8v39.4h-20v-36.4c0-5.5-1.2-9.5-3.6-12.2-2.4-2.7-5.8-4.1-10.4-4.1s-9,1.6-12,4.7-4.5,7.7-4.5,13.8v34h-20v-68.9h19.1v8.1c2.6-2.9,5.9-5.1,9.9-6.7,4-1.4,8.3-2.2,13-2.2ZM622.7,374c-5.7,0-11.3-.7-16.8-2-5.5-1.5-9.8-3.2-13.1-5.4l6.7-14.3c3.1,2,6.8,3.6,11.1,4.9,4.4,1.2,8.6,1.8,12.8,1.8,8.4,0,12.7-2.1,12.7-6.3s-1.2-3.4-3.5-4.2c-2.3-.9-5.8-1.6-10.6-2.2-5.6-.9-10.3-1.8-14-2.9s-6.9-3.1-9.6-5.9c-2.6-2.8-4-6.8-4-12s1.2-8.2,3.7-11.5c2.6-3.4,6.2-6.1,11-7.9,4.9-1.9,10.6-2.8,17.2-2.8s9.7.6,14.5,1.7c4.9,1,8.9,2.5,12,4.4l-6.7,14.2c-6.1-3.4-12.7-5.1-19.8-5.1s-7.5.6-9.6,1.8-3.2,2.7-3.2,4.6,1.2,3.6,3.5,4.5,6,1.7,11,2.4c5.6.9,10.2,2,13.8,3.1,3.6,1,6.7,2.9,9.3,5.8,2.6,2.8,4,6.7,4,11.8s-1.3,8.1-3.8,11.4c-2.6,3.3-6.3,5.9-11.3,7.8-4.8,1.4-10.6,2.3-17.3,2.3ZM735,369.7c-2,1.5-4.4,2.6-7.3,3.3-2.8.7-5.8,1-8.8,1-8.3,0-14.6-2.1-19.1-6.3-4.4-4.2-6.7-10.3-6.7-18.4v-60.4h20v16.8h17v15.3h-17v28c0,2.9.7,5.2,2.2,6.8,1.5,1.5,3.5,2.3,6.3,2.3s5.8-.9,8.2-2.6l5.2,14.2ZM771.8,374c-7.3,0-13.8-1.5-19.6-4.5-5.7-3.1-10.2-7.3-13.4-12.7-3.2-5.4-4.9-11.5-4.9-18.3s1.6-12.9,4.9-18.3c3.2-5.4,7.7-9.6,13.4-12.5,5.8-3.1,12.3-4.6,19.6-4.6s13.7,1.5,19.5,4.6c5.7,3,10.2,7.2,13.4,12.5s4.9,11.5,4.9,18.3-1.6,12.9-4.9,18.3c-3.2,5.4-7.7,9.6-13.4,12.7-5.8,3-12.3,4.5-19.5,4.5ZM771.8,357.6c5.1,0,9.3-1.7,12.5-5.1,3.3-3.5,5-8.1,5-14s-1.7-10.4-5-13.8c-3.2-3.5-7.4-5.2-12.5-5.2s-9.3,1.7-12.7,5.2c-3.3,3.4-5,8-5,13.8s1.7,10.5,5,14c3.3,3.4,7.6,5.1,12.7,5.1ZM890.4,369.7c-2,1.5-4.4,2.6-7.3,3.3-2.8.7-5.8,1-8.8,1-8.3,0-14.6-2.1-19.1-6.3-4.4-4.2-6.7-10.3-6.7-18.4v-60.4h20v16.8h17v15.3h-17v28c0,2.9.7,5.2,2.2,6.8,1.5,1.5,3.5,2.3,6.3,2.3s5.8-.9,8.2-2.6l5.2,14.2ZM964.3,304.1v68.9h-19.1v-7.9c-4.9,6-12.1,9-21.5,9s-12.4-1.5-17.7-4.4c-5.2-2.9-9.3-7-12.3-12.4s-4.5-11.6-4.5-18.7,1.5-13.3,4.5-18.7,7.1-9.5,12.3-12.4c5.3-2.9,11.2-4.4,17.7-4.4s15.7,2.8,20.6,8.3v-7.3h20ZM927.2,357.6c5,0,9.2-1.7,12.5-5.1,3.3-3.5,5-8.1,5-14s-1.7-10.4-5-13.8c-3.3-3.5-7.5-5.2-12.5-5.2s-9.3,1.7-12.7,5.2c-3.3,3.4-5,8-5,13.8s1.7,10.5,5,14c3.3,3.4,7.6,5.1,12.7,5.1ZM1011,374c-7.3,0-14-1.5-19.8-4.5-5.8-3.1-10.4-7.3-13.7-12.7-3.2-5.4-4.9-11.5-4.9-18.3s1.6-12.9,4.9-18.3c3.3-5.4,7.9-9.6,13.7-12.5,5.9-3.1,12.5-4.6,19.8-4.6s13.6,1.5,18.9,4.6c5.5,3,9.4,7.3,11.9,12.9l-15.5,8.3c-3.6-6.3-8.8-9.5-15.5-9.5s-9.5,1.7-12.9,5.1-5.1,8.1-5.1,14,1.7,10.5,5.1,14c3.4,3.4,7.7,5.1,12.9,5.1s12-3.2,15.5-9.5l15.5,8.4c-2.5,5.5-6.4,9.7-11.9,12.8-5.4,3.2-11.7,4.7-18.9,4.7ZM1077.2,346l-9.6,9.5v17.5h-20v-95h20v53.8l29.2-27.6h23.8l-28.7,29.2,31.2,39.7h-24.1l-21.8-27.1ZM1151.8,374c-7.8,0-13.8-2-18.2-6.1-4.3-4.2-6.5-10.1-6.5-17.7v-72.2h20v71c0,2.9.7,5.2,2.2,6.8,1.5,1.5,3.7,2.3,6.4,2.3s2.1-.1,3.1-.4c1.1-.3,2-.6,2.6-.9l.9,15.5c-3.5,1.2-7,1.7-10.5,1.7ZM1200.2,358c3.6,0,6.8-.5,9.5-1.5,2.8-1.1,5.4-2.8,7.8-5.1l10.6,11.5c-6.5,7.4-16,11.1-28.4,11.1s-14.6-1.5-20.6-4.5c-6-3.1-10.6-7.3-13.8-12.7-3.2-5.4-4.9-11.5-4.9-18.3s1.6-12.8,4.7-18.2c3.2-5.5,7.6-9.7,13.2-12.7,5.6-3.1,11.9-4.6,18.9-4.6s12.5,1.4,17.9,4.2c5.4,2.7,9.6,6.7,12.8,12,3.2,5.2,4.9,11.4,4.9,18.6l-50.9,9.9c1.5,3.4,3.7,6,6.8,7.7,3.2,1.8,7,2.6,11.5,2.6ZM1197.3,318.2c-5,0-9.1,1.6-12.3,4.9-3.2,3.2-4.8,7.7-5,13.4l33.5-6.5c-.9-3.6-2.9-6.4-5.8-8.6-2.8-2.1-6.3-3.2-10.4-3.2ZM133.7,500.7c-2,1.5-4.4,2.6-7.3,3.3-2.8.7-5.8,1-8.8,1-8.3,0-14.6-2.1-19.1-6.3-4.4-4.2-6.7-10.3-6.7-18.4v-60.4h20v16.8h17v15.3h-17v28c0,2.9.7,5.2,2.2,6.8,1.5,1.5,3.5,2.3,6.3,2.3s5.8-.9,8.2-2.6l5.2,14.2ZM181.7,434.1c8.5,0,15.4,2.6,20.6,7.7,5.3,5.1,7.9,12.7,7.9,22.8v39.4h-20v-36.4c0-5.5-1.2-9.5-3.6-12.2-2.4-2.7-5.8-4.1-10.4-4.1s-9,1.6-12,4.7-4.5,7.7-4.5,13.8v34h-20v-95h20v33.3c2.6-2.6,5.8-4.7,9.6-6,3.9-1.3,8-2,12.4-2ZM258.7,489c3.6,0,6.7-.5,9.5-1.5,2.8-1.1,5.4-2.8,7.8-5.1l10.6,11.5c-6.5,7.4-16,11.1-28.4,11.1s-14.6-1.5-20.6-4.5c-6-3.1-10.6-7.3-13.8-12.7-3.2-5.4-4.9-11.5-4.9-18.3s1.6-12.8,4.7-18.2c3.2-5.5,7.6-9.7,13.2-12.7,5.6-3.1,11.9-4.6,18.9-4.6s12.5,1.4,17.9,4.2c5.4,2.7,9.6,6.7,12.8,12,3.2,5.2,4.9,11.4,4.9,18.6l-50.9,9.9c1.5,3.4,3.7,6,6.8,7.7,3.1,1.8,6.9,2.6,11.5,2.6ZM255.7,449.2c-5,0-9.1,1.6-12.3,4.9-3.2,3.2-4.8,7.7-5,13.4l33.6-6.5c-.9-3.6-2.9-6.4-5.8-8.6-2.9-2.1-6.4-3.2-10.5-3.2ZM418.9,434.1c8.6,0,15.4,2.6,20.5,7.7,5.1,5,7.7,12.6,7.7,22.8v39.4h-20v-36.4c0-5.5-1.2-9.5-3.5-12.2-2.2-2.7-5.4-4.1-9.6-4.1s-8.4,1.5-11.1,4.6c-2.7,3-4.1,7.5-4.1,13.4v34.7h-20v-36.4c0-10.8-4.4-16.3-13.1-16.3s-8.3,1.5-11,4.6c-2.7,3-4.1,7.5-4.1,13.4v34.7h-20v-68.9h19.1v7.9c2.6-2.9,5.7-5.1,9.3-6.7,3.8-1.5,7.9-2.3,12.3-2.3s9.3,1,13.2,2.9c3.9,1.9,7.1,4.7,9.5,8.3,2.8-3.6,6.4-6.4,10.6-8.3,4.5-1.8,9.2-2.8,14.3-2.8ZM493.4,505c-7.3,0-13.8-1.5-19.6-4.5-5.7-3.1-10.2-7.3-13.4-12.7-3.2-5.4-4.9-11.5-4.9-18.3s1.6-12.9,4.9-18.3c3.2-5.4,7.7-9.6,13.4-12.5,5.8-3.1,12.3-4.6,19.6-4.6s13.7,1.5,19.5,4.6c5.7,3,10.2,7.2,13.4,12.5,3.2,5.4,4.9,11.5,4.9,18.3s-1.6,12.9-4.9,18.3c-3.2,5.4-7.7,9.6-13.4,12.7-5.8,3-12.3,4.5-19.5,4.5ZM493.4,488.6c5.1,0,9.3-1.7,12.5-5.1,3.3-3.5,5-8.1,5-14s-1.7-10.4-5-13.8c-3.2-3.5-7.4-5.2-12.5-5.2s-9.3,1.7-12.7,5.2c-3.3,3.4-5,8-5,13.8s1.7,10.5,5,14c3.3,3.4,7.6,5.1,12.7,5.1ZM609.5,409v95h-19.1v-7.9c-4.9,6-12.1,9-21.5,9s-12.4-1.5-17.7-4.4c-5.2-2.9-9.3-7-12.3-12.4s-4.5-11.6-4.5-18.7,1.5-13.3,4.5-18.7,7.1-9.5,12.3-12.4c5.3-2.9,11.2-4.4,17.7-4.4s15.7,2.8,20.6,8.3v-33.4h20ZM572.4,488.6c5,0,9.2-1.7,12.5-5.1,3.3-3.5,5-8.1,5-14s-1.7-10.4-5-13.8c-3.3-3.5-7.5-5.2-12.5-5.2s-9.3,1.7-12.7,5.2c-3.3,3.4-5,8-5,13.8s1.7,10.5,5,14c3.4,3.4,7.6,5.1,12.7,5.1ZM657.6,489c3.6,0,6.7-.5,9.5-1.5,2.8-1.1,5.4-2.8,7.8-5.1l10.6,11.5c-6.5,7.4-16,11.1-28.4,11.1s-14.6-1.5-20.6-4.5c-6-3.1-10.6-7.3-13.8-12.7-3.2-5.4-4.9-11.5-4.9-18.3s1.6-12.8,4.7-18.2c3.2-5.5,7.6-9.7,13.2-12.7,5.6-3.1,11.9-4.6,18.9-4.6s12.5,1.4,17.9,4.2c5.4,2.7,9.6,6.7,12.8,12,3.2,5.2,4.9,11.4,4.9,18.6l-50.9,9.9c1.5,3.4,3.7,6,6.8,7.7,3.1,1.8,6.9,2.6,11.5,2.6ZM654.6,449.2c-5,0-9.1,1.6-12.3,4.9-3.2,3.2-4.8,7.7-5,13.4l33.5-6.5c-.9-3.6-2.9-6.4-5.8-8.6-2.8-2.1-6.3-3.2-10.4-3.2ZM717.6,444.2c2.4-3.3,5.6-5.8,9.6-7.6,4.1-1.7,8.8-2.6,14.1-2.6v18.4c-2.2-.2-3.7-.3-4.5-.3-5.7,0-10.2,1.6-13.4,4.9-3.2,3.2-4.9,7.9-4.9,14.3v32.7h-20v-68.9h19.1v9.1h0ZM789.9,434.1c8.5,0,15.4,2.6,20.6,7.7,5.3,5.1,7.9,12.7,7.9,22.8v39.4h-20v-36.4c0-5.5-1.2-9.5-3.6-12.2-2.4-2.7-5.8-4.1-10.4-4.1s-9,1.6-12,4.7-4.5,7.7-4.5,13.8v34h-20v-68.9h19.1v8.1c2.6-2.9,5.9-5.1,9.9-6.7,4-1.4,8.3-2.2,13-2.2ZM971.4,435.1v38c0,10.2-2.8,18-8.3,23.6-5.5,5.5-13.4,8.3-23.7,8.3s-9.3-.8-13.2-2.3c-3.8-1.5-6.9-4-9.5-7.4-2.6,3.4-5.7,5.9-9.5,7.4s-8.2,2.3-13.3,2.3c-10.3,0-18.2-2.8-23.7-8.3s-8.2-13.4-8.2-23.6v-38h20v36.5c0,5.7,1,9.9,2.9,12.7,2,2.6,5,4,9.2,4s7.4-1.4,9.5-4.1c2-2.7,3.1-6.9,3.1-12.5v-36.5h20v36.5c0,5.6,1,9.8,3.1,12.5,2,2.7,5.2,4.1,9.5,4.1s7.3-1.3,9.2-4c2-2.7,2.9-7,2.9-12.7v-36.5h20ZM1019,489c3.6,0,6.7-.5,9.5-1.5,2.8-1.1,5.4-2.8,7.8-5.1l10.6,11.5c-6.5,7.4-16,11.1-28.4,11.1s-14.6-1.5-20.6-4.5c-6-3.1-10.6-7.3-13.8-12.7-3.2-5.4-4.9-11.5-4.9-18.3s1.6-12.8,4.7-18.2c3.2-5.5,7.6-9.7,13.2-12.7,5.6-3.1,11.9-4.6,18.9-4.6s12.5,1.4,17.9,4.2c5.4,2.7,9.6,6.7,12.8,12,3.2,5.2,4.9,11.4,4.9,18.6l-50.9,9.9c1.5,3.4,3.7,6,6.8,7.7,3.1,1.8,6.9,2.6,11.5,2.6ZM1016,449.2c-5,0-9.1,1.6-12.3,4.9-3.2,3.2-4.8,7.7-5,13.4l33.5-6.5c-.9-3.6-2.9-6.4-5.8-8.6-2.8-2.1-6.3-3.2-10.4-3.2ZM1100.6,434.1c6.4,0,12.2,1.5,17.4,4.5,5.3,2.9,9.4,7,12.4,12.4,3,5.3,4.5,11.5,4.5,18.6s-1.5,13.3-4.5,18.7c-3,5.3-7.1,9.4-12.4,12.4-5.2,2.9-11,4.4-17.4,4.4-9.5,0-16.7-3-21.6-9v7.9h-19.1v-95h20v33.4c5-5.5,11.9-8.3,20.7-8.3ZM1097.2,488.6c5.1,0,9.3-1.7,12.5-5.1,3.3-3.5,5-8.1,5-14s-1.7-10.4-5-13.8c-3.2-3.5-7.4-5.2-12.5-5.2s-9.3,1.7-12.7,5.2c-3.2,3.4-4.9,8-4.9,13.8s1.6,10.5,4.9,14c3.3,3.4,7.5,5.1,12.7,5.1Z"/>
  <path class="cls-4" d="M1149.8,505c-3.5,0-6.4-1.2-8.8-3.6s-3.6-5.4-3.6-9,1.2-6.6,3.6-8.8c2.4-2.3,5.3-3.5,8.8-3.5s6.4,1.2,8.8,3.5c2.4,2.2,3.6,5.2,3.6,8.8s-1.2,6.6-3.6,9-5.3,3.6-8.8,3.6Z"/>
  <g>
    <g>
      <path class="cls-3" d="M96.2,531.7c-.9-.4-1.5-1.1-2-1.9-.5-.8-.7-1.8-.7-2.9s.2-2.1.7-2.9c.5-.8,1.1-1.5,2-1.9.8-.5,1.8-.7,2.9-.7s1.4,0,2,.2c.6.2,1.1.4,1.6.8v1.8c-.4-.4-.9-.7-1.5-.8s-1.2-.3-1.9-.3-1.4.2-2,.5c-.6.3-1,.7-1.4,1.3-.3.6-.5,1.2-.5,2s.2,1.4.5,2c.3.6.8,1,1.3,1.3s1.2.5,2,.5,1.4-.1,1.9-.4v-2.4h-1.8v-1.5h3.7v4.9c-.9.7-2.2,1.1-3.9,1.1s-2.1-.2-2.9-.7Z"/>
      <path class="cls-3" d="M105.4,531.4c-.8-.7-1.2-1.6-1.2-2.8s.3-2.1,1-2.8c.7-.7,1.7-1,3-1s1.6.2,2.2.5c.6.3,1,.8,1.3,1.3.3.6.5,1.2.5,1.9v.9h-6.1c.1,1.1,1.1,1.6,2.8,1.6s.9,0,1.4-.1.9-.2,1.3-.3v1.5c-.3.1-.8.3-1.3.3s-1.1.1-1.6.1c-1.3,0-2.4-.3-3.2-1ZM110.3,528c0-.6-.2-1-.6-1.3-.4-.3-.9-.5-1.6-.5s-1.2.2-1.6.5c-.4.3-.6.8-.6,1.3h4.4Z"/>
      <path class="cls-3" d="M114.7,531.7c-.4-.4-.6-1.1-.6-1.9v-3.5h-1.1v-1.4h1.1v-2.2h1.9v2.2h1.7v1.4h-1.7v3.2c0,.5,0,.8.3,1,.2.2.5.3.9.3s.6,0,.9-.2v1.4c-.4.2-1,.3-1.6.3s-1.4-.2-1.8-.7Z"/>
      <path class="cls-3" d="M126,532.2c-.6-.1-1-.3-1.4-.5v-1.6c.4.2.9.4,1.4.6.5.1,1,.2,1.5.2s.8,0,1-.1c.2,0,.3-.2.3-.5s0-.3-.2-.4c-.1-.1-.3-.2-.6-.3-.3,0-.6-.2-1.2-.4-.6-.2-1.1-.3-1.4-.5-.3-.2-.6-.4-.8-.7-.2-.3-.3-.6-.3-1.1,0-.7.3-1.3.9-1.6.6-.4,1.3-.5,2.3-.5s1,0,1.5.1c.5,0,.9.2,1.2.4v1.5c-.3-.2-.7-.3-1.1-.4-.4-.1-.9-.2-1.3-.2s-.9,0-1.1.1c-.2,0-.4.3-.4.5s0,.3.2.4c.1.1.3.2.5.3s.6.2,1.2.3c.6.2,1.1.4,1.5.6.3.2.6.4.8.7.1.3.2.6.2,1.1,0,.6-.3,1.2-.8,1.5s-1.3.6-2.4.6-1.1,0-1.7-.2Z"/>
      <path class="cls-3" d="M133.2,531.7c-.4-.4-.6-1.1-.6-1.9v-3.5h-1.1v-1.4h1.1v-2.2h1.9v2.2h1.7v1.4h-1.7v3.2c0,.5,0,.8.3,1,.2.2.5.3.9.3s.6,0,.9-.2v1.4c-.4.2-1,.3-1.6.3s-1.4-.2-1.8-.7Z"/>
      <path class="cls-3" d="M138.2,531.7c-.5-.5-.8-1.1-.8-1.8s.3-1.4.8-1.9,1.2-.7,2.2-.7,1.7.2,2.4.6v-.2c0-.5-.2-.9-.5-1.1-.3-.2-.8-.3-1.5-.3s-.9,0-1.3.1c-.4,0-.8.2-1.1.4v-1.5c.3-.1.7-.3,1.2-.3s1-.1,1.5-.1c1.2,0,2.2.3,2.8.8.6.5.9,1.3.9,2.2v4.4h-1.8v-.7c-.3.3-.7.5-1.1.7-.4.2-.9.2-1.4.2-.9,0-1.6-.2-2.1-.7ZM141.9,530.7c.3-.2.6-.4.8-.7v-.8c-.5-.4-1.2-.6-1.9-.6-1,0-1.5.4-1.5,1.2s.1.7.4.9c.3.2.6.3,1.1.3s.8,0,1.1-.2Z"/>
      <path class="cls-3" d="M146.4,524.9h1.8v1.2c.3-.4.7-.7,1.2-.9.5-.2,1.1-.3,1.8-.3v1.4c-.7,0-1.4.1-1.9.3-.5.2-.9.6-1.1,1.1v4.4h-1.9v-7.2Z"/>
      <path class="cls-3" d="M153.6,531.7c-.4-.4-.6-1.1-.6-1.9v-3.5h-1.1v-1.4h1.1v-2.2h1.9v2.2h1.7v1.4h-1.7v3.2c0,.5,0,.8.3,1,.2.2.5.3.9.3s.6,0,.9-.2v1.4c-.4.2-1,.3-1.6.3s-1.4-.2-1.8-.7Z"/>
      <path class="cls-3" d="M159.2,531.4c-.8-.7-1.2-1.6-1.2-2.8s.3-2.1,1-2.8c.7-.7,1.7-1,3-1s1.6.2,2.2.5c.6.3,1,.8,1.3,1.3.3.6.5,1.2.5,1.9v.9h-6.1c.1,1.1,1.1,1.6,2.8,1.6s.9,0,1.4-.1.9-.2,1.3-.3v1.5c-.3.1-.8.3-1.3.3s-1.1.1-1.6.1c-1.3,0-2.4-.3-3.2-1ZM164.1,528c0-.6-.2-1-.6-1.3-.4-.3-.9-.5-1.6-.5s-1.2.2-1.6.5c-.4.3-.6.8-.6,1.3h4.4Z"/>
      <path class="cls-3" d="M169,531.9c-.6-.3-1-.8-1.4-1.3-.3-.6-.5-1.2-.5-2s.2-1.4.5-2c.3-.6.8-1,1.4-1.4.6-.3,1.2-.5,2-.5,1.2,0,2.1.3,2.8.9v-4.6h1.9v11.1h-1.8v-.8c-.4.4-.8.7-1.3.8-.4.2-1,.2-1.6.2s-1.4-.2-2-.5ZM172.8,530.4c.4-.3.7-.7.9-1.2v-1.5c-.2-.5-.5-.9-.9-1.2-.4-.3-.9-.4-1.4-.4s-1.2.2-1.7.7c-.4.4-.7,1-.7,1.7s.2,1.2.7,1.7c.4.4,1,.6,1.7.6s1-.1,1.4-.4Z"/>
      <path class="cls-3" d="M182.5,524.9h1.9l1.5,4.9,1.4-4.9h1.6l1.4,4.9,1.5-4.9h1.9l-2.4,7.2h-1.7l-1.5-4.9-1.5,4.9h-1.7l-2.4-7.2Z"/>
      <path class="cls-3" d="M195.6,523.4c-.2-.2-.3-.5-.3-.8s.1-.6.3-.8c.2-.2.5-.3.8-.3s.6.1.8.3.3.5.3.8-.1.5-.3.8-.5.3-.8.3-.6,0-.8-.3ZM195.3,524.9h1.9v7.2h-1.9v-7.2Z"/>
      <path class="cls-3" d="M200.3,531.7c-.4-.4-.6-1.1-.6-1.9v-3.5h-1.1v-1.4h1.1v-2.2h1.9v2.2h1.7v1.4h-1.7v3.2c0,.5,0,.8.3,1,.2.2.5.3.9.3s.6,0,.9-.2v1.4c-.4.2-1,.3-1.6.3s-1.4-.2-1.8-.7Z"/>
      <path class="cls-3" d="M205,521.1h1.9v4.8c.7-.8,1.6-1.1,2.6-1.1s1.7.3,2.2.8c.5.5.7,1.2.7,2.1v4.5h-1.9v-4.4c0-1-.5-1.6-1.5-1.6s-.8.1-1.2.3c-.4.2-.7.5-1,.9v4.7h-1.9v-11.1Z"/>
      <path class="cls-3" d="M220.1,531.7c-.5-.5-.8-1.1-.8-1.8s.3-1.4.8-1.9,1.2-.7,2.2-.7,1.7.2,2.4.6v-.2c0-.5-.2-.9-.5-1.1-.3-.2-.8-.3-1.5-.3s-.9,0-1.3.1c-.4,0-.8.2-1.1.4v-1.5c.3-.1.7-.3,1.2-.3s1-.1,1.5-.1c1.2,0,2.2.3,2.8.8.6.5.9,1.3.9,2.2v4.4h-1.8v-.7c-.3.3-.7.5-1.1.7-.4.2-.9.2-1.4.2-.9,0-1.6-.2-2.1-.7ZM223.8,530.7c.3-.2.6-.4.8-.7v-.8c-.5-.4-1.2-.6-1.9-.6-1,0-1.5.4-1.5,1.2s.1.7.4.9c.3.2.6.3,1.1.3s.8,0,1.1-.2Z"/>
      <path class="cls-3" d="M234.1,526.4h-1.1v-1.4h1.1v-1.2c0-.9.3-1.6.8-2,.5-.5,1.2-.7,2.1-.7s.9,0,1.3.2v1.5c-.3-.1-.6-.2-.9-.2s-.8,0-1,.3c-.2.2-.3.5-.3,1v1.1h1.8v1.4h-1.8v5.8h-1.9v-5.8Z"/>
      <path class="cls-3" d="M240.2,531.9c-.6-.3-1.1-.7-1.5-1.3-.4-.6-.5-1.3-.5-2s.2-1.4.5-2c.3-.6.8-1,1.5-1.3.6-.3,1.4-.5,2.2-.5s1.6.2,2.2.5c.6.3,1.1.8,1.5,1.3s.5,1.2.5,2-.2,1.5-.5,2c-.4.6-.8,1-1.5,1.3-.6.3-1.4.5-2.2.5s-1.6-.2-2.2-.5ZM244.1,530.2c.4-.4.6-1,.6-1.7s-.2-1.3-.6-1.7c-.4-.4-1-.6-1.7-.6s-1.3.2-1.7.6c-.4.4-.6,1-.6,1.7s.2,1.3.6,1.7c.4.4,1,.7,1.6.7s1.2-.2,1.6-.7Z"/>
      <path class="cls-3" d="M248.2,524.9h1.8v1.2c.3-.4.7-.7,1.2-.9.5-.2,1.1-.3,1.8-.3v1.4c-.7,0-1.4.1-1.9.3-.5.2-.9.6-1.1,1.1v4.4h-1.9v-7.2Z"/>
      <path class="cls-3" d="M253.9,524.9h1.9l1.5,4.9,1.4-4.9h1.6l1.4,4.9,1.5-4.9h1.9l-2.4,7.2h-1.7l-1.5-4.9-1.5,4.9h-1.7l-2.4-7.2Z"/>
      <path class="cls-3" d="M266.4,531.7c-.5-.5-.8-1.1-.8-1.8s.3-1.4.8-1.9,1.2-.7,2.2-.7,1.7.2,2.4.6v-.2c0-.5-.2-.9-.5-1.1-.3-.2-.8-.3-1.5-.3s-.9,0-1.3.1c-.4,0-.8.2-1.1.4v-1.5c.3-.1.7-.3,1.2-.3s1-.1,1.5-.1c1.2,0,2.2.3,2.8.8.6.5.9,1.3.9,2.2v4.4h-1.8v-.7c-.3.3-.7.5-1.1.7-.4.2-.9.2-1.4.2-.9,0-1.6-.2-2.1-.7ZM270.1,530.7c.3-.2.6-.4.8-.7v-.8c-.5-.4-1.2-.6-1.9-.6-1,0-1.5.4-1.5,1.2s.1.7.4.9c.3.2.6.3,1.1.3s.8,0,1.1-.2Z"/>
      <path class="cls-3" d="M274.5,524.9h1.8v1.2c.3-.4.7-.7,1.2-.9.5-.2,1.1-.3,1.8-.3v1.4c-.7,0-1.4.1-1.9.3-.5.2-.9.6-1.1,1.1v4.4h-1.9v-7.2Z"/>
      <path class="cls-3" d="M281.9,531.9c-.6-.3-1-.8-1.4-1.3-.3-.6-.5-1.2-.5-2s.2-1.4.5-2c.3-.6.8-1,1.4-1.4.6-.3,1.2-.5,2-.5,1.2,0,2.1.3,2.8.9v-4.6h1.9v11.1h-1.8v-.8c-.4.4-.8.7-1.3.8-.4.2-1,.2-1.6.2s-1.4-.2-2-.5ZM285.8,530.4c.4-.3.7-.7.9-1.2v-1.5c-.2-.5-.5-.9-.9-1.2-.4-.3-.9-.4-1.4-.4s-1.2.2-1.7.7c-.4.4-.7,1-.7,1.7s.2,1.2.7,1.7c.4.4,1,.6,1.7.6s1-.1,1.4-.4Z"/>
      <path class="cls-3" d="M296.8,531.7c-.4-.4-.6-1.1-.6-1.9v-3.5h-1.1v-1.4h1.1v-2.2h1.9v2.2h1.7v1.4h-1.7v3.2c0,.5,0,.8.3,1,.2.2.5.3.9.3s.6,0,.9-.2v1.4c-.4.2-1,.3-1.6.3s-1.4-.2-1.8-.7Z"/>
      <path class="cls-3" d="M301.6,521.1h1.9v4.8c.7-.8,1.6-1.1,2.6-1.1s1.7.3,2.2.8c.5.5.7,1.2.7,2.1v4.5h-1.9v-4.4c0-1-.5-1.6-1.5-1.6s-.8.1-1.2.3c-.4.2-.7.5-1,.9v4.7h-1.9v-11.1Z"/>
      <path class="cls-3" d="M311,523.4c-.2-.2-.3-.5-.3-.8s.1-.6.3-.8c.2-.2.5-.3.8-.3s.6.1.8.3.3.5.3.8-.1.5-.3.8-.5.3-.8.3-.6,0-.8-.3ZM310.8,524.9h1.9v7.2h-1.9v-7.2Z"/>
      <path class="cls-3" d="M314.7,524.9h1.8v1c.3-.4.7-.7,1.2-.9.5-.2,1-.3,1.5-.3,1,0,1.7.3,2.2.8.5.5.7,1.2.7,2.1v4.5h-1.9v-4.4c0-1-.5-1.6-1.5-1.6s-.8.1-1.2.3c-.4.2-.7.5-1,.9v4.7h-1.9v-7.2Z"/>
      <path class="cls-3" d="M323.8,521.1h1.9v7l2.9-3.2h2.2l-3.2,3.5,3.6,3.7h-2.2l-3.2-3.3v3.3h-1.9v-11.1Z"/>
      <path class="cls-3" d="M332.9,523.4c-.2-.2-.3-.5-.3-.8s.1-.6.3-.8c.2-.2.5-.3.8-.3s.6.1.8.3.3.5.3.8-.1.5-.3.8-.5.3-.8.3-.6,0-.8-.3ZM332.7,524.9h1.9v7.2h-1.9v-7.2Z"/>
      <path class="cls-3" d="M336.6,524.9h1.8v1c.3-.4.7-.7,1.2-.9.5-.2,1-.3,1.5-.3,1,0,1.7.3,2.2.8.5.5.7,1.2.7,2.1v4.5h-1.9v-4.4c0-1-.5-1.6-1.5-1.6s-.8.1-1.2.3c-.4.2-.7.5-1,.9v4.7h-1.9v-7.2Z"/>
      <path class="cls-3" d="M348.1,535.5c-.5,0-.9-.2-1.2-.4v-1.5c.8.3,1.7.5,2.6.5s1.5-.2,1.9-.6.6-.9.6-1.7v-.5c-.3.3-.7.5-1.2.7-.5.2-1,.2-1.5.2s-1.4-.2-2-.5c-.6-.3-1.1-.8-1.4-1.4-.3-.6-.5-1.2-.5-2s.2-1.4.5-2c.3-.6.8-1,1.4-1.3.6-.3,1.2-.5,2-.5s1.1,0,1.6.2c.4.2.9.4,1.3.8v-.8h1.8v6.8c0,1.2-.4,2.2-1.1,2.9s-1.8,1-3.3,1-1,0-1.4-.1ZM351.1,530.4c.4-.3.7-.7.9-1.2v-1.5c-.2-.5-.5-.9-.9-1.2-.4-.3-.9-.4-1.4-.4s-1.2.2-1.7.6c-.4.4-.7,1-.7,1.7s.2,1.3.7,1.7c.4.4,1,.7,1.7.7s1-.1,1.4-.4Z"/>
      <path class="cls-3" d="M360.8,524.9h1.9l1.5,4.9,1.4-4.9h1.6l1.4,4.9,1.5-4.9h1.9l-2.4,7.2h-1.7l-1.5-4.9-1.5,4.9h-1.7l-2.4-7.2Z"/>
      <path class="cls-3" d="M374,531.4c-.8-.7-1.2-1.6-1.2-2.8s.3-2.1,1-2.8c.7-.7,1.7-1,3-1s1.6.2,2.2.5c.6.3,1,.8,1.3,1.3.3.6.5,1.2.5,1.9v.9h-6.1c.1,1.1,1.1,1.6,2.8,1.6s.9,0,1.4-.1.9-.2,1.3-.3v1.5c-.3.1-.8.3-1.3.3s-1.1.1-1.6.1c-1.3,0-2.4-.3-3.2-1ZM379,528c0-.6-.2-1-.6-1.3-.4-.3-.9-.5-1.6-.5s-1.2.2-1.6.5c-.4.3-.6.8-.6,1.3h4.4Z"/>
      <path class="cls-3" d="M385.3,532.1c-.4-.2-.9-.4-1.3-.8v.8h-1.8v-11.1h1.9v4.6c.3-.3.8-.5,1.2-.7s1-.2,1.6-.2,1.4.2,2,.5c.6.3,1,.8,1.4,1.4.3.6.5,1.2.5,2s-.2,1.4-.5,2c-.3.6-.8,1-1.4,1.3-.6.3-1.2.5-2,.5s-1.1,0-1.6-.2ZM388.1,530.2c.4-.4.7-1,.7-1.7s-.2-1.3-.7-1.7c-.4-.4-1-.7-1.7-.7s-1,.1-1.4.4c-.4.3-.7.7-.9,1.2v1.5c.2.5.5.9.9,1.2.4.3.9.4,1.4.4s1.2-.2,1.7-.6Z"/>
      <path class="cls-3" d="M393.1,532.2c-.6-.1-1-.3-1.4-.5v-1.6c.4.2.9.4,1.4.6.5.1,1,.2,1.5.2s.8,0,1-.1c.2,0,.3-.2.3-.5s0-.3-.2-.4c-.1-.1-.3-.2-.6-.3-.3,0-.6-.2-1.2-.4-.6-.2-1.1-.3-1.4-.5-.3-.2-.6-.4-.8-.7-.2-.3-.3-.6-.3-1.1,0-.7.3-1.3.9-1.6.6-.4,1.3-.5,2.3-.5s1,0,1.5.1c.5,0,.9.2,1.2.4v1.5c-.3-.2-.7-.3-1.1-.4-.4-.1-.9-.2-1.3-.2s-.9,0-1.1.1c-.2,0-.4.3-.4.5s0,.3.2.4c.1.1.3.2.5.3s.6.2,1.2.3c.6.2,1.1.4,1.5.6.3.2.6.4.8.7.1.3.2.6.2,1.1,0,.6-.3,1.2-.8,1.5s-1.3.6-2.4.6-1.1,0-1.7-.2Z"/>
      <path class="cls-3" d="M399.8,523.4c-.2-.2-.3-.5-.3-.8s.1-.6.3-.8c.2-.2.5-.3.8-.3s.6.1.8.3.3.5.3.8-.1.5-.3.8-.5.3-.8.3-.6,0-.8-.3ZM399.6,524.9h1.9v7.2h-1.9v-7.2Z"/>
      <path class="cls-3" d="M404.5,531.7c-.4-.4-.6-1.1-.6-1.9v-3.5h-1.1v-1.4h1.1v-2.2h1.9v2.2h1.7v1.4h-1.7v3.2c0,.5,0,.8.3,1,.2.2.5.3.9.3s.6,0,.9-.2v1.4c-.4.2-1,.3-1.6.3s-1.4-.2-1.8-.7Z"/>
      <path class="cls-3" d="M410.1,531.4c-.8-.7-1.2-1.6-1.2-2.8s.3-2.1,1-2.8c.7-.7,1.7-1,3-1s1.6.2,2.2.5c.6.3,1,.8,1.3,1.3.3.6.5,1.2.5,1.9v.9h-6.1c.1,1.1,1.1,1.6,2.8,1.6s.9,0,1.4-.1.9-.2,1.3-.3v1.5c-.3.1-.8.3-1.3.3s-1.1.1-1.6.1c-1.3,0-2.4-.3-3.2-1ZM415.1,528c0-.6-.2-1-.6-1.3-.4-.3-.9-.5-1.6-.5s-1.2.2-1.6.5c-.4.3-.6.8-.6,1.3h4.4Z"/>
      <path class="cls-3" d="M423.8,524.9h1.8v1c.3-.4.7-.7,1.2-.9.5-.2,1-.3,1.5-.3,1,0,1.7.3,2.2.8.5.5.7,1.2.7,2.1v4.5h-1.9v-4.4c0-1-.5-1.6-1.5-1.6s-.8.1-1.2.3c-.4.2-.7.5-1,.9v4.7h-1.9v-7.2Z"/>
      <path class="cls-3" d="M434.4,531.9c-.6-.3-1.1-.7-1.5-1.3-.4-.6-.5-1.3-.5-2s.2-1.4.5-2c.3-.6.8-1,1.5-1.3.6-.3,1.4-.5,2.2-.5s1.6.2,2.2.5c.6.3,1.1.8,1.5,1.3s.5,1.2.5,2-.2,1.5-.5,2c-.4.6-.8,1-1.5,1.3-.6.3-1.4.5-2.2.5s-1.6-.2-2.2-.5ZM438.3,530.2c.4-.4.6-1,.6-1.7s-.2-1.3-.6-1.7c-.4-.4-1-.6-1.7-.6s-1.3.2-1.7.6c-.4.4-.6,1-.6,1.7s.2,1.3.6,1.7c.4.4,1,.7,1.6.7s1.2-.2,1.6-.7Z"/>
      <path class="cls-3" d="M441.1,524.9h1.9l1.5,4.9,1.4-4.9h1.6l1.4,4.9,1.5-4.9h1.9l-2.4,7.2h-1.7l-1.5-4.9-1.5,4.9h-1.7l-2.4-7.2Z"/>
    </g>
    <g id="ARROW">
      <g>
        <line class="cls-2" x1="469.2" y1="528.6" x2="480.9" y2="528.6"/>
        <polygon class="cls-6" points="478.8 536 491.7 528.6 478.8 521.1 478.8 536"/>
      </g>
      <line class="cls-1" x1="460.7" y1="528.6" x2="482.3" y2="528.6"/>
    </g>
  </g>
  <rect class="cls-3" x="455.5" y="518.5" width="37.9" height="19.3"/>
</svg>